<svg width="372" height="383" viewBox="0 0 372 383" fill="none" xmlns="http://www.w3.org/2000/svg">
<path fill-rule="evenodd" clip-rule="evenodd" d="M18.8923 1.55808C16.5963 2.37108 12.6833 4.82708 10.1983 7.01408C-3.23868 18.8421 -3.42468 39.5491 9.80132 51.4401C16.0993 57.1021 22.0383 58.9201 34.2433 58.9201H43.5553L50.6023 72.9881C56.8843 85.5281 58.0353 87.2171 61.1953 88.5371C67.8393 91.3141 74.2903 87.4081 75.2833 80.0091C75.8183 76.0221 75.6653 75.7751 67.5363 67.4471L59.2433 58.9511L184.156 58.6851L309.068 58.4201L313.484 62.7881C317.763 67.0201 317.98 67.1081 320.484 65.6321C329.743 60.1731 327.551 60.0161 342.672 67.2191L356.277 73.6991L360.922 70.8081C365.272 68.1011 365.567 67.6461 365.557 63.6681L365.545 59.4201L355.807 55.2421L346.068 51.0631L345.771 46.1311L345.473 41.2001L337.313 40.5191C332.825 40.1451 329.071 39.7441 328.969 39.6291C328.868 39.5141 329.277 37.0481 329.879 34.1481C332.69 20.5921 323.418 4.47208 310.793 0.966082C308.301 0.274082 260.043 -0.04492 165.068 0.00508003C42.3923 0.06808 22.5003 0.279081 18.8923 1.55808ZM311.772 4.22108C318.178 7.36708 321.938 11.2941 324.887 17.9201C326.955 22.5661 327.695 32.1961 326.351 36.9641L325.633 39.5081L316.351 38.7531C311.245 38.3371 305.381 37.7981 303.318 37.5541L299.568 37.1101V41.7011C299.568 45.5991 300.171 47.0071 303.568 51.0351C305.768 53.6441 307.568 56.0361 307.568 56.3491C307.568 56.6631 252.531 56.9201 185.264 56.9201H62.9603L59.6423 53.4961L56.3233 50.0721L58.4623 47.0691C62.6963 41.1221 64.5233 35.6451 64.5463 28.8301C64.5833 17.7491 58.6313 8.27108 48.0683 2.58908C45.2963 1.09808 54.9893 0.993081 175.568 1.19808L306.068 1.42008L311.772 4.22108ZM39.1513 14.5261C49.7153 19.5391 49.8483 38.4181 39.3593 44.0321C37.5753 44.9871 37.6503 44.6791 39.9323 41.6871C45.3463 34.5891 45.3833 21.6651 39.9933 20.3121C36.5823 19.4561 34.7323 20.4181 33.9723 23.4451C33.4723 25.4401 33.8183 26.4071 35.4433 27.5451C37.9663 29.3121 38.2283 33.3191 35.9383 35.1311C35.0413 35.8401 32.8003 37.9601 30.9583 39.8431C27.7063 43.1671 27.5513 43.2151 25.6243 41.4711C18.1113 34.6721 19.9843 18.9231 28.8243 14.5651C32.9413 12.5351 34.9393 12.5281 39.1513 14.5261ZM91.8413 23.4471C88.7123 26.5761 88.3823 27.3931 88.9083 30.6971C89.2633 32.9261 90.5403 35.3231 92.0903 36.6701L94.6803 38.9201L142.374 38.8881C178.289 38.8641 190.46 38.5561 191.655 37.6381C195.294 34.8441 196.654 28.8181 194.538 24.8651C191.951 20.0291 190.779 19.9201 141.518 19.9201H95.3683L91.8413 23.4471ZM213.678 21.2821C208.278 24.3511 207.119 31.0441 211.157 35.8431L213.746 38.9201H233.202C252.527 38.9201 252.676 38.9031 255.113 36.4651C258.466 33.1131 258.486 27.0991 255.157 23.2261L252.745 20.4201L234.407 20.1721C220.428 19.9831 215.5 20.2471 213.678 21.2821ZM302.125 25.8241C302.69 30.6441 304.546 35.0911 304.461 31.4201C304.435 30.3201 303.783 27.6201 303.011 25.4201L301.608 21.4201L302.125 25.8241ZM292.068 29.9201C297.08 35.0091 298.874 36.3261 296.493 33.1701C293.644 29.3951 289.125 24.9201 288.159 24.9201C287.6 24.9201 289.359 27.1701 292.068 29.9201ZM284.568 38.5511C284.568 39.0761 288.135 40.4041 292.068 41.3441C294.091 41.8281 294.742 41.7321 294.068 41.0481C293.05 40.0171 284.568 37.7871 284.568 38.5511ZM323.77 40.4601C333.284 41.3071 341.518 42.1341 342.068 42.2991C342.618 42.4631 341.634 43.3421 339.881 44.2521C338.129 45.1611 336.446 46.3081 336.142 46.8001C335.838 47.2921 341.659 50.3311 349.079 53.5531C356.498 56.7761 362.568 59.6491 362.568 59.9391C362.568 60.2281 361.094 61.2591 359.293 62.2291L356.018 63.9931L342.543 57.5511L329.068 51.1091L326.068 52.8411C324.418 53.7941 322.017 55.2141 320.732 55.9971C318.497 57.3581 318.138 57.1381 312.443 50.9201C309.169 47.3451 305.577 43.1831 304.461 41.6701L302.432 38.9201H304.452C305.562 38.9201 314.256 39.6131 323.77 40.4601ZM364.218 52.3141C366.406 53.9211 371.568 56.1661 371.568 55.5101C371.568 54.8131 367.039 52.2001 364.568 51.4721C362.075 50.7371 362.074 50.7391 364.218 52.3141ZM358.568 53.4201C359.943 54.2061 361.743 54.8491 362.568 54.8491C363.435 54.8491 363.013 54.2461 361.568 53.4201C360.193 52.6341 358.393 51.9911 357.568 51.9911C356.701 51.9911 357.123 52.5941 358.568 53.4201ZM8.58732 63.2981C8.55632 64.7211 23.4143 90.9201 24.2523 90.9201C24.8733 90.9201 15.7683 73.8271 11.6693 67.2981C9.98432 64.6151 8.59732 62.8151 8.58732 63.2981ZM174.417 83.6701C174.193 87.9321 174.288 94.7951 174.627 98.9201C175.12 104.908 175.277 103.345 175.406 91.1701C175.495 82.7821 175.401 75.9201 175.196 75.9201C174.992 75.9201 174.642 79.4071 174.417 83.6701ZM304.64 88.7301C296.751 102.062 294.277 107.623 300.438 98.1751C305.446 90.4961 312.951 76.9201 312.188 76.9201C311.88 76.9201 308.483 82.2341 304.64 88.7301ZM141.388 102.42C146.073 108.683 151.481 114.525 151.526 113.374C151.549 112.798 148.604 109.198 144.982 105.374C141.359 101.549 139.742 100.22 141.388 102.42ZM204.893 104.67C197.536 113.35 196.648 115.157 203.049 108.42C208.279 102.916 211.288 98.9201 210.202 98.9201C209.962 98.9201 207.573 101.508 204.893 104.67ZM172.361 117.664C171.52 118.63 165.437 127.52 158.844 137.42L146.855 155.42L139.462 157.697C108.991 167.079 81.8273 191.942 68.8883 222.293C61.9863 238.482 58.9523 255.845 59.9013 273.731L60.5013 285.042L37.5353 319.47C24.9033 338.406 14.5683 354.128 14.5683 354.409C14.5683 354.69 33.6633 354.92 57.0023 354.92H99.4363L106.752 360.432C120.574 370.845 137.729 378.172 155.911 381.427C169.757 383.906 190.238 383.105 203.905 379.55C216.308 376.323 232.601 368.582 243.209 360.875L251.405 354.92H301.594C342.742 354.92 351.691 354.682 351.276 353.601C350.997 352.875 337.224 334.12 320.669 311.922L290.568 271.563V263.852C290.568 237.957 278.653 209.25 259.198 188.271C255.551 184.339 252.568 180.868 252.568 180.556C252.568 180.245 255.017 175.952 258.01 171.016C261.003 166.079 267.133 155.601 271.631 147.73C276.129 139.86 280.692 131.957 281.77 130.17C282.849 128.383 283.487 126.92 283.188 126.92C282.669 126.92 266.154 154.239 256.135 171.67C253.527 176.207 251.237 179.92 251.046 179.92C250.856 179.92 247.537 177.541 243.671 174.633C234.465 167.706 223.164 161.755 212.276 158.099L203.484 155.147L189.034 135.875C181.087 125.276 174.428 116.447 174.237 116.256C174.046 116.064 173.201 116.698 172.361 117.664ZM41.1813 122.138C48.6143 136.511 77.5513 187.92 78.2093 187.92C78.7533 187.92 75.9413 182.489 66.4103 165.128C53.9433 142.422 40.5033 118.92 39.9853 118.92C39.7273 118.92 40.2653 120.368 41.1813 122.138ZM185.486 144.17C191.713 157.508 197.014 168.947 197.265 169.592C197.605 170.464 194.834 170.621 186.395 170.206C175.456 169.669 143.208 171.029 150.818 171.707L154.568 172.041L154.772 180.23L154.975 188.42L155.312 180.151L155.65 171.881L177.169 172.151L198.689 172.42L206.629 189.297C210.995 198.58 214.568 206.343 214.568 206.547C214.568 206.752 211.193 206.92 207.068 206.92H199.568V202.361C199.568 199.315 199.205 198.026 198.474 198.478C197.872 198.85 197.547 200.9 197.751 203.037L198.121 206.92L191.094 207.05L184.068 207.179L191.568 208.111C195.693 208.624 202.734 208.843 207.215 208.599L215.362 208.154L226.282 231.287L237.201 254.42L233.134 255.02C230.629 255.389 230.028 255.683 231.568 255.783C238.09 256.211 237.326 254.928 260.454 304.289C272.617 330.247 282.568 351.808 282.568 352.203C282.568 352.597 271.191 352.92 257.285 352.92H232.003L232.392 346.023C232.611 342.151 232.31 338.312 231.705 337.273C230.876 335.846 230.622 337.43 230.598 344.17L230.568 352.92H124.067H17.5663L49.8173 304.372L82.0683 255.823L87.5683 256.324C90.5933 256.6 94.8683 256.449 97.0683 255.988C99.3283 255.514 100.089 255.1 98.8183 255.035C96.7823 254.931 96.5503 254.372 96.3793 249.17L96.1903 243.42L95.8293 249.17L95.4683 254.92H89.5183C86.2463 254.92 83.5683 254.693 83.5683 254.417C83.5683 254.14 90.5513 243.435 99.0873 230.629L114.606 207.345L122.982 208.243C128.15 208.797 134.56 208.769 139.714 208.17C147.893 207.219 147.727 207.196 131.818 207.059C122.881 206.983 115.568 206.694 115.568 206.418C115.568 205.471 172.894 119.92 173.529 119.92C173.878 119.92 179.258 130.832 185.486 144.17ZM125.568 129.327C125.568 130.146 140.75 136.026 141.887 135.647C142.533 135.432 139.365 133.83 134.847 132.088C126.534 128.882 125.568 128.595 125.568 129.327ZM214.068 132.406C209.668 134.284 206.668 135.844 207.401 135.871C208.698 135.919 223.584 130.237 224.462 129.359C225.792 128.03 221.091 129.408 214.068 132.406ZM160.364 213.576L160.068 220.293L153.068 221.514C145.367 222.857 140.105 224.585 133.578 227.915L129.283 230.106L125.362 225.763L121.44 221.42L124.095 226.546L126.75 231.671L120.815 237.546C117.55 240.776 114.247 244.324 113.474 245.429C112.701 246.533 110.718 247.892 109.068 248.449C107.098 249.113 105.956 250.245 105.741 251.745C105.372 254.326 107.291 257.21 108.768 256.296C109.384 255.916 109.342 255.294 108.655 254.607C107.054 253.006 107.333 249.92 109.079 249.92C110.742 249.92 122.368 257.401 124.249 259.682C124.899 260.47 125.206 261.7 124.931 262.416C124.656 263.132 124.849 263.976 125.359 264.291C125.869 264.606 126.162 263.727 126.009 262.336C125.835 260.751 126.168 259.961 126.9 260.218C127.542 260.443 127.969 261.481 127.847 262.524C127.726 263.567 127.876 263.858 128.18 263.17C129.042 261.227 130.866 261.699 130.116 263.67C129.582 265.073 129.699 265.172 130.709 264.17C132.068 262.82 133.982 262.44 133.224 263.67C132.97 264.083 134.357 264.476 136.306 264.545C138.255 264.614 140.213 265.321 140.658 266.116C141.316 267.292 144.919 267.571 159.999 267.615C170.191 267.644 178.312 267.315 178.045 266.883C177.63 266.212 183.724 264.58 187.182 264.436C187.795 264.411 189.117 263.722 190.12 262.905C191.788 261.546 191.879 261.59 191.193 263.42C190.513 265.238 190.636 265.215 192.545 263.17C194.896 260.652 196.789 260.182 195.968 262.319C195.673 263.088 195.824 263.96 196.303 264.256C196.782 264.552 197.15 263.629 197.121 262.205C197.084 260.402 197.645 259.529 198.968 259.334C200.013 259.179 201.138 258.683 201.468 258.231C201.798 257.779 204.681 255.465 207.875 253.089C212.573 249.594 213.957 248.998 215.125 249.967C215.919 250.626 216.568 252.261 216.568 253.601C216.568 254.971 217.006 255.767 217.568 255.42C218.95 254.566 218.824 250.576 217.368 249.12C216.708 248.46 214.984 247.92 213.537 247.92C211.721 247.92 210.471 247.107 209.501 245.295C208.729 243.852 205.009 239.812 201.235 236.318L194.372 229.964L196.985 225.29C198.422 222.719 199.42 220.439 199.203 220.222C198.908 219.927 193.813 225.93 191.975 228.737C191.86 228.912 189.585 227.957 186.917 226.617C181.425 223.856 170.518 220.92 165.754 220.92H162.568V214.479C162.568 205.757 160.742 205.008 160.364 213.576ZM177.713 224.884C188.937 228.352 199.837 236.04 206.688 245.319C210.162 250.025 209.908 250.465 200.551 255.93C174.089 271.384 140.061 269.395 115.629 250.966L113.226 249.154L116.889 244.164C121.521 237.854 127.813 232.687 136.165 228.333C143.064 224.737 145.831 224.072 145.012 226.206C144.707 227 145.768 227.861 147.782 228.456C154.892 230.556 153.728 240.109 146.287 240.73C142.226 241.069 141.944 241.758 143.707 247.021C145.302 251.783 148.431 254.92 151.587 254.92C155.817 254.92 157.678 251.906 158.617 243.533C159.554 235.179 161.308 230.984 165.876 226.17C169.503 222.348 169.506 222.348 177.713 224.884ZM122.568 261.42C122.568 261.695 122.793 261.92 123.068 261.92C123.343 261.92 123.568 261.695 123.568 261.42C123.568 261.145 123.343 260.92 123.068 260.92C122.793 260.92 122.568 261.145 122.568 261.42ZM199.027 261.987C198.001 263.647 198.922 263.877 200.357 262.319C201.067 261.55 201.206 260.92 200.666 260.92C200.127 260.92 199.389 261.4 199.027 261.987ZM193.568 264.42C193.568 264.695 193.793 264.92 194.068 264.92C194.343 264.92 194.568 264.695 194.568 264.42C194.568 264.145 194.343 263.92 194.068 263.92C193.793 263.92 193.568 264.145 193.568 264.42ZM127.568 267.022C127.568 268.24 139.931 272.932 147.068 274.423C154.209 275.915 170.476 276.495 169.194 275.212C168.804 274.823 164.792 274.427 160.277 274.333C147.27 274.06 146.417 273.973 147.025 272.989C147.342 272.477 147.074 271.733 146.43 271.335C145.722 270.897 145.526 271.043 145.935 271.705C146.348 272.373 145.823 272.74 144.59 272.647C143.478 272.563 142.568 272.19 142.568 271.818C142.568 271.446 142.006 271.163 141.318 271.189C140.631 271.214 139.168 271.157 138.068 271.062C136.381 270.916 136.303 270.729 137.568 269.863C138.901 268.951 138.901 268.864 137.568 269.086C135.343 269.455 130.414 267.979 130.954 267.105C131.211 266.689 130.554 266.349 129.495 266.349C128.435 266.349 127.568 266.652 127.568 267.022ZM133.568 266.42C133.568 266.695 133.793 266.92 134.068 266.92C134.343 266.92 134.568 266.695 134.568 266.42C134.568 266.145 134.343 265.92 134.068 265.92C133.793 265.92 133.568 266.145 133.568 266.42ZM137.568 266.42C137.568 266.695 137.793 266.92 138.068 266.92C138.343 266.92 138.568 266.695 138.568 266.42C138.568 266.145 138.343 265.92 138.068 265.92C137.793 265.92 137.568 266.145 137.568 266.42ZM143.235 266.587C142.868 266.953 142.268 266.953 141.901 266.587C141.535 266.22 141.835 265.92 142.568 265.92C143.301 265.92 143.601 266.22 143.235 266.587ZM182.568 266.42C182.568 266.695 182.793 266.92 183.068 266.92C183.343 266.92 183.568 266.695 183.568 266.42C183.568 266.145 183.343 265.92 183.068 265.92C182.793 265.92 182.568 266.145 182.568 266.42ZM186.582 267.334C187.23 267.982 187.906 267.982 188.554 267.334C189.201 266.687 188.863 266.349 187.568 266.349C186.273 266.349 185.935 266.687 186.582 267.334ZM191.45 266.67C191.384 267.083 191.384 267.757 191.45 268.17C191.561 268.873 189.663 269.293 186.829 269.19C186.147 269.166 185.805 269.494 186.068 269.919C186.949 271.346 182.248 271.862 181.143 270.46C179.738 268.676 175.349 268.996 174.825 270.92C174.461 272.253 174.535 272.253 175.492 270.92C176.438 269.602 176.683 269.599 177.515 270.894C178.147 271.876 178.063 272.621 177.265 273.128C176.451 273.646 176.621 273.894 177.795 273.905C179.994 273.924 192.739 269.152 194.067 267.812C194.74 267.133 194.44 267.041 193.154 267.531C191.818 268.04 191.458 267.906 191.963 267.09C192.361 266.446 192.434 265.92 192.127 265.92C191.82 265.92 191.515 266.257 191.45 266.67ZM195.568 266.42C195.568 266.695 195.793 266.92 196.068 266.92C196.343 266.92 196.568 266.695 196.568 266.42C196.568 266.145 196.343 265.92 196.068 265.92C195.793 265.92 195.568 266.145 195.568 266.42ZM135.568 267.42C135.568 267.695 135.793 267.92 136.068 267.92C136.343 267.92 136.568 267.695 136.568 267.42C136.568 267.145 136.343 266.92 136.068 266.92C135.793 266.92 135.568 267.145 135.568 267.42ZM180.568 267.42C180.568 267.695 180.793 267.92 181.068 267.92C181.343 267.92 181.568 267.695 181.568 267.42C181.568 267.145 181.343 266.92 181.068 266.92C180.793 266.92 180.568 267.145 180.568 267.42ZM140.568 269.42C140.568 269.695 140.793 269.92 141.068 269.92C141.343 269.92 141.568 269.695 141.568 269.42C141.568 269.145 141.343 268.92 141.068 268.92C140.793 268.92 140.568 269.145 140.568 269.42ZM143.568 269.42C143.568 269.695 143.793 269.92 144.068 269.92C144.343 269.92 144.568 269.695 144.568 269.42C144.568 269.145 144.343 268.92 144.068 268.92C143.793 268.92 143.568 269.145 143.568 269.42ZM146.568 269.42C146.568 269.695 146.793 269.92 147.068 269.92C147.343 269.92 147.568 269.695 147.568 269.42C147.568 269.145 147.343 268.92 147.068 268.92C146.793 268.92 146.568 269.145 146.568 269.42ZM149.027 269.987C148.001 271.647 148.922 271.877 150.357 270.319C151.067 269.55 151.206 268.92 150.666 268.92C150.127 268.92 149.389 269.4 149.027 269.987ZM154.182 270.344C154.76 271.861 154.568 272.134 153.274 271.637C152.371 271.291 151.424 271.344 151.169 271.756C150.915 272.168 151.567 272.57 152.618 272.649C155.033 272.831 156.159 271.108 154.622 269.583C153.727 268.696 153.623 268.876 154.182 270.344ZM156.568 269.42C156.568 269.695 156.793 269.92 157.068 269.92C157.343 269.92 157.568 269.695 157.568 269.42C157.568 269.145 157.343 268.92 157.068 268.92C156.793 268.92 156.568 269.145 156.568 269.42ZM159.568 269.42C159.568 269.695 159.793 269.92 160.068 269.92C160.343 269.92 160.568 269.695 160.568 269.42C160.568 269.145 160.343 268.92 160.068 268.92C159.793 268.92 159.568 269.145 159.568 269.42ZM161.937 270.132C161.61 270.661 161.87 271.618 162.514 272.257C163.408 273.144 163.528 273.004 163.02 271.67C162.654 270.708 162.69 269.92 163.101 269.92C163.511 269.92 164.429 270.708 165.14 271.67C166.125 273.003 166.715 273.143 167.614 272.257C169.269 270.626 168.068 269.17 165.068 269.17C163.673 269.17 162.264 269.603 161.937 270.132ZM169.568 269.42C169.568 269.695 169.793 269.92 170.068 269.92C170.343 269.92 170.568 269.695 170.568 269.42C170.568 269.145 170.343 268.92 170.068 268.92C169.793 268.92 169.568 269.145 169.568 269.42ZM172.568 269.42C172.568 269.695 172.793 269.92 173.068 269.92C173.343 269.92 173.568 269.695 173.568 269.42C173.568 269.145 173.343 268.92 173.068 268.92C172.793 268.92 172.568 269.145 172.568 269.42ZM182.568 269.42C182.568 269.695 182.793 269.92 183.068 269.92C183.343 269.92 183.568 269.695 183.568 269.42C183.568 269.145 183.343 268.92 183.068 268.92C182.793 268.92 182.568 269.145 182.568 269.42ZM167.568 270.92C167.568 271.47 167.118 271.92 166.568 271.92C166.018 271.92 165.568 271.47 165.568 270.92C165.568 270.37 166.018 269.92 166.568 269.92C167.118 269.92 167.568 270.37 167.568 270.92ZM180.568 270.92C180.568 271.47 180.118 271.92 179.568 271.92C179.018 271.92 178.568 271.47 178.568 270.92C178.568 270.37 179.018 269.92 179.568 269.92C180.118 269.92 180.568 270.37 180.568 270.92ZM159.068 271.92C159.408 272.47 159.911 272.92 160.186 272.92C160.461 272.92 160.408 272.47 160.068 271.92C159.728 271.37 159.225 270.92 158.95 270.92C158.675 270.92 158.728 271.37 159.068 271.92ZM156.568 272.42C156.568 272.695 156.793 272.92 157.068 272.92C157.343 272.92 157.568 272.695 157.568 272.42C157.568 272.145 157.343 271.92 157.068 271.92C156.793 271.92 156.568 272.145 156.568 272.42ZM169.568 272.42C169.568 272.695 169.793 272.92 170.068 272.92C170.343 272.92 170.568 272.695 170.568 272.42C170.568 272.145 170.343 271.92 170.068 271.92C169.793 271.92 169.568 272.145 169.568 272.42ZM172.568 272.42C172.568 272.695 172.793 272.92 173.068 272.92C173.343 272.92 173.568 272.695 173.568 272.42C173.568 272.145 173.343 271.92 173.068 271.92C172.793 271.92 172.568 272.145 172.568 272.42ZM171.837 274.613C172.81 274.867 174.16 274.85 174.837 274.576C175.514 274.302 174.718 274.095 173.068 274.115C171.418 274.135 170.864 274.359 171.837 274.613ZM218.348 285.248C216.967 286.528 215.307 289.18 214.66 291.142C212.669 297.174 206.323 297.527 193.761 292.307C177.57 285.578 164.567 288.274 159.449 299.42C155.673 307.642 157.856 317.535 164.91 324.172C166.647 325.806 170.993 328.556 174.568 330.282C180.745 333.264 181.665 333.42 193.068 333.42C206.77 333.42 211.102 332.046 218.518 325.346C222.564 321.691 227.568 313.518 227.568 310.565C227.568 309.734 229.009 308.872 231.033 308.493C232.939 308.135 234.812 307.333 235.197 306.711C235.683 305.926 235.311 305.831 233.982 306.402C227.669 309.115 221.366 306.918 217.563 300.679C213.895 294.664 215.935 286.97 221.883 284.384C224.379 283.298 224.613 282.99 222.964 282.959C221.807 282.938 219.73 283.967 218.348 285.248ZM135.568 291.92C135.568 295.92 135.997 298.92 136.568 298.92C137.139 298.92 137.568 295.92 137.568 291.92C137.568 287.92 137.139 284.92 136.568 284.92C135.997 284.92 135.568 287.92 135.568 291.92ZM181.568 296.361C181.568 299.904 181.092 303.096 180.511 303.455C177.996 305.009 174.505 302.74 171.588 297.654C169.937 294.775 168.583 292.115 168.577 291.743C168.564 290.758 171.413 290.168 176.818 290.036L181.568 289.92V296.361ZM191.231 292.553C194.39 293.872 194.568 294.217 194.568 299.003C194.568 303.648 194.388 304.033 192.36 303.74C189.865 303.378 185.002 296.896 183.974 292.559C183.225 289.401 183.688 289.401 191.231 292.553ZM167.938 295.17C168.9 298.76 168.662 306.876 167.533 308.986C166.148 311.573 163.394 311.428 160.765 308.63C158.891 306.635 158.745 305.864 159.629 302.661C160.626 299.051 164.976 292.92 166.54 292.92C166.977 292.92 167.606 293.932 167.938 295.17ZM204.508 296.92C206.85 296.92 207.421 297.436 207.938 300.018C208.526 302.962 207.871 307.92 206.894 307.92C205.097 307.92 201.987 305.074 199.501 301.153C195.907 295.486 195.851 294.697 199.133 295.945C200.544 296.481 202.963 296.92 204.508 296.92ZM83.8183 300.669C95.7813 300.828 115.356 300.828 127.318 300.669C139.281 300.509 129.493 300.379 105.568 300.379C81.6433 300.379 71.8563 300.509 83.8183 300.669ZM95.9733 317.42C95.9743 326.22 96.1273 329.686 96.3133 325.123C96.4983 320.559 96.4973 313.359 96.3103 309.123C96.1233 304.886 95.9723 308.62 95.9733 317.42Z" fill="black"/>
</svg>
