<svg width="24" height="24" viewBox="0 0 24 24" fill="none" xmlns="http://www.w3.org/2000/svg">
<g clip-path="url(#clip0_8_5)">
<path d="M12 1.505C13.7268 1.50479 15.427 1.93049 16.95 2.74436C18.473 3.55824 19.7718 4.73518 20.7313 6.17092C21.6907 7.60666 22.2813 9.25687 22.4506 10.9754C22.62 12.6939 22.3628 14.4276 21.702 16.023C21.0412 17.6184 19.9972 19.0262 18.6623 20.1217C17.3274 21.2171 15.743 21.9665 14.0493 22.3033C12.3557 22.6401 10.6051 22.5541 8.95267 22.0527C7.30023 21.5513 5.79695 20.6502 4.576 19.429" stroke="black" stroke-width="2" stroke-linecap="round" stroke-linejoin="round"/>
<path d="M8.893 15.108L12 12L12.012 12.012V5.793" stroke="black" stroke-width="2" stroke-linecap="round" stroke-linejoin="round"/>
<path id="one" d="M7.24 3.776C7.86132 3.776 8.365 3.27232 8.365 2.651C8.365 2.02968 7.86132 1.526 7.24 1.526C6.61868 1.526 6.115 2.02968 6.115 2.651C6.115 3.27232 6.61868 3.776 7.24 3.776Z" fill="#262626"/>
<path id="two" d="M3.515 6.955C4.13632 6.955 4.64 6.45132 4.64 5.83C4.64 5.20868 4.13632 4.705 3.515 4.705C2.89368 4.705 2.39 5.20868 2.39 5.83C2.39 6.45132 2.89368 6.955 3.515 6.955Z" fill="#262626"/>
<path id="three" d="M1.636 11.478C2.25732 11.478 2.761 10.9743 2.761 10.353C2.761 9.73168 2.25732 9.228 1.636 9.228C1.01468 9.228 0.511002 9.73168 0.511002 10.353C0.511002 10.9743 1.01468 11.478 1.636 11.478Z" fill="#262626"/>
<path id="four" d="M2.01 16.36C2.63132 16.36 3.135 15.8563 3.135 15.235C3.135 14.6137 2.63132 14.11 2.01 14.11C1.38868 14.11 0.884998 14.6137 0.884998 15.235C0.884998 15.8563 1.38868 16.36 2.01 16.36Z" fill="#262626"/>
</g>
<defs>
<clipPath id="clip0_8_5">
<rect width="24" height="24" fill="white"/>
</clipPath>
</defs>
</svg>
