<svg width="22" height="22" viewBox="0 0 22 22" fill="none" xmlns="http://www.w3.org/2000/svg">
<path d="M15.95 13.6125V5.04166C15.95 3.71249 14.8958 2.65833 13.5667 2.65833H5.04167C3.7125 2.65833 2.65833 3.71249 2.65833 5.04166V13.6125C2.65833 14.9417 3.7125 15.9958 5.04167 15.9958H13.6125C14.8958 15.95 15.95 14.8958 15.95 13.6125ZM17.9667 6.87499V14.2542C17.9667 16.3167 16.2708 18.0125 14.2083 18.0125H6.82917C6.55417 18.0125 6.41667 18.3333 6.6 18.5167C7.05833 19.0208 7.7 19.3417 8.47917 19.3417H14.6208C17.2333 19.3417 19.3417 17.2333 19.3417 14.6208V8.47916C19.3417 7.74583 19.0208 7.05833 18.5167 6.59999C18.2875 6.41666 17.9667 6.59999 17.9667 6.87499Z" fill="black"/>
</svg>
