<svg width="24" height="24" viewBox="0 0 24 24" fill="none" xmlns="http://www.w3.org/2000/svg">
   <style>
        @media (prefers-color-scheme: dark) {
            path { 
                fill: white;  
            }

            rect {
                fill: black;
            }
        }
    </style>
<g clip-path="url(#clip0_11_35)">
<path d="M15.83 10.997C15.5992 10.997 15.3736 11.0654 15.1816 11.1937C14.9897 11.3219 14.8402 11.5042 14.7518 11.7174C14.6635 11.9306 14.6404 12.1653 14.6854 12.3917C14.7304 12.618 14.8416 12.826 15.0048 12.9892C15.168 13.1524 15.376 13.2635 15.6023 13.3086C15.8287 13.3536 16.0633 13.3305 16.2766 13.2422C16.4898 13.1538 16.6721 13.0043 16.8003 12.8124C16.9286 12.6204 16.997 12.3948 16.997 12.164C16.997 11.8545 16.874 11.5577 16.6552 11.3388C16.4363 11.12 16.1395 10.997 15.83 10.997ZM9.33 12.164C9.33 11.9331 9.26153 11.7075 9.13325 11.5155C9.00498 11.3236 8.82266 11.174 8.60936 11.0857C8.39606 10.9974 8.16136 10.9744 7.93496 11.0195C7.70856 11.0646 7.50062 11.1759 7.33745 11.3392C7.17428 11.5025 7.06322 11.7105 7.0183 11.9369C6.97338 12.1634 6.99664 12.3981 7.08512 12.6113C7.1736 12.8245 7.32333 13.0067 7.51538 13.1348C7.70742 13.2629 7.93314 13.3312 8.164 13.331C8.47333 13.3307 8.76991 13.2077 8.98854 12.9888C9.20718 12.77 9.33 12.4733 9.33 12.164ZM14.493 15.404C14.1748 15.7462 13.7895 16.0193 13.3613 16.2062C12.933 16.3932 12.4708 16.49 12.0035 16.4906C11.5362 16.4913 11.0738 16.3958 10.645 16.21C10.2162 16.0243 9.83017 15.7523 9.511 15.411C9.34444 15.2045 9.10269 15.0727 8.83892 15.0445C8.57515 15.0162 8.31097 15.0939 8.1045 15.2605C7.89803 15.4271 7.76618 15.6688 7.73795 15.9326C7.70973 16.1963 7.78744 16.4605 7.954 16.667C8.46044 17.2404 9.08299 17.6995 9.78036 18.014C10.4777 18.3285 11.234 18.4911 11.999 18.4911C12.764 18.4911 13.5203 18.3285 14.2176 18.014C14.915 17.6995 15.5376 17.2404 16.044 16.667C16.204 16.4607 16.2769 16.2001 16.2473 15.9407C16.2177 15.6814 16.0878 15.4439 15.8854 15.279C15.6831 15.1141 15.4243 15.0349 15.1643 15.0582C14.9043 15.0816 14.6637 15.2057 14.494 15.404H14.493ZM12 0.503C9.72551 0.503 7.50211 1.17746 5.61094 2.4411C3.71977 3.70474 2.24579 5.50079 1.37538 7.60214C0.504975 9.70349 0.277237 12.0158 0.720967 14.2465C1.1647 16.4773 2.25997 18.5264 3.86827 20.1347C5.47657 21.743 7.52568 22.8383 9.75646 23.282C11.9872 23.7258 14.2995 23.498 16.4009 22.6276C18.5022 21.7572 20.2983 20.2832 21.5619 18.3921C22.8255 16.5009 23.5 14.2775 23.5 12.003C23.4966 8.95407 22.2838 6.031 20.1279 3.87507C17.972 1.71915 15.0489 0.506441 12 0.503ZM12 21.503C10.1211 21.503 8.28435 20.9458 6.72208 19.902C5.15981 18.8581 3.94217 17.3744 3.22314 15.6385C2.50411 13.9026 2.31598 11.9925 2.68254 10.1496C3.0491 8.30682 3.95388 6.61409 5.28248 5.28549C6.61108 3.95689 8.30382 3.0521 10.1466 2.68554C11.9895 2.31898 13.8996 2.50711 15.6355 3.22614C17.3714 3.94518 18.8551 5.16282 19.899 6.72508C20.9428 8.28735 21.5 10.1241 21.5 12.003C21.4974 14.5217 20.4956 16.9366 18.7146 18.7176C16.9336 20.4986 14.5187 21.5004 12 21.503Z" fill="#262626"/>
</g>
<defs>
<clipPath id="clip0_11_35">
<rect width="24" height="24" fill="white"/>
</clipPath>
</defs>
</svg>
