<svg width="24" height="24" viewBox="0 0 24 24" fill="none" xmlns="http://www.w3.org/2000/svg">
   <style>
        @media (prefers-color-scheme: dark) {
            path { 
                stroke: white; 
            }
        }
    </style>
<path d="M12 20.635C16.769 20.635 20.635 16.769 20.635 12C20.635 7.23102 16.769 3.365 12 3.365C7.23102 3.365 3.365 7.23102 3.365 12C3.365 16.769 7.23102 20.635 12 20.635Z" stroke="black" stroke-width="2" stroke-linecap="round" stroke-linejoin="round"/>
<path d="M14.232 3.656C14.0604 3.60803 13.9009 3.52447 13.7637 3.41075C13.6266 3.29704 13.5149 3.15572 13.436 2.996L12.93 2H11.07L10.565 2.996C10.4861 3.15572 10.3744 3.29704 10.2373 3.41075C10.1001 3.52447 9.94058 3.60803 9.769 3.656M9.768 20.344C9.93958 20.392 10.0991 20.4755 10.2363 20.5892C10.3734 20.703 10.4851 20.8443 10.564 21.004L11.069 22H12.931L13.436 21.004C13.5149 20.8443 13.6266 20.703 13.7637 20.5892C13.9009 20.4755 14.0604 20.392 14.232 20.344M3.656 9.768C3.60803 9.93958 3.52447 10.0991 3.41075 10.2363C3.29704 10.3734 3.15572 10.4851 2.996 10.564L2 11.07V12.932L2.996 13.437C3.15572 13.5159 3.29704 13.6276 3.41075 13.7647C3.52447 13.9019 3.60803 14.0614 3.656 14.233M20.344 14.232C20.392 14.0604 20.4755 13.9009 20.5892 13.7637C20.703 13.6266 20.8443 13.5149 21.004 13.436L22 12.93V11.07L21.004 10.565C20.8443 10.4861 20.703 10.3744 20.5892 10.2373C20.4755 10.1001 20.392 9.94058 20.344 9.769M7.678 4.522C7.52269 4.60944 7.35069 4.66318 7.17323 4.67972C6.99576 4.69626 6.8168 4.67523 6.648 4.618L5.588 4.27L4.27 5.587L4.618 6.649C4.67523 6.8178 4.69626 6.99676 4.67972 7.17423C4.66318 7.35169 4.60944 7.52369 4.522 7.679M16.322 19.478C16.4773 19.3906 16.6493 19.3368 16.8268 19.3203C17.0042 19.3037 17.1832 19.3248 17.352 19.382L18.412 19.73L19.73 18.413L19.382 17.351C19.3248 17.1822 19.3037 17.0032 19.3203 16.8258C19.3368 16.6483 19.3906 16.4763 19.478 16.321M4.522 16.322C4.60944 16.4773 4.66318 16.6493 4.67972 16.8268C4.69626 17.0042 4.67523 17.1832 4.618 17.352L4.27 18.412L5.587 19.73L6.649 19.382C6.8178 19.3248 6.99676 19.3037 7.17423 19.3203C7.35169 19.3368 7.52369 19.3906 7.679 19.478M19.478 7.678C19.3906 7.52269 19.3368 7.35069 19.3203 7.17323C19.3037 6.99576 19.3248 6.8168 19.382 6.648L19.73 5.588L18.413 4.27L17.351 4.618C17.1822 4.67523 17.0032 4.69626 16.8258 4.67972C16.6483 4.66318 16.4763 4.60944 16.321 4.522" stroke="black" stroke-width="2" stroke-linejoin="round"/>
</svg>
