<svg width="14" height="14" viewBox="0 0 14 14" fill="none" xmlns="http://www.w3.org/2000/svg">
<g clip-path="url(#clip0_116_8)">
<rect width="14" height="14" rx="2.7" fill="white"/>
<path d="M3.59116 11.1562C3.54255 11.211 3.48178 11.2019 3.40887 11.1289C3.32988 11.0621 3.31773 11.0043 3.37241 10.9558C3.42102 10.9011 3.48178 10.9102 3.5547 10.9831C3.62761 11.05 3.63977 11.1077 3.59116 11.1562ZM3.20835 10.6003C3.26303 10.6732 3.26303 10.7309 3.20835 10.7735C3.15974 10.8099 3.10808 10.7887 3.0534 10.7097C2.99871 10.6307 2.99871 10.576 3.0534 10.5456C3.10808 10.5031 3.15974 10.5213 3.20835 10.6003ZM2.65236 10.0534C2.62197 10.096 2.58247 10.102 2.53386 10.0716C2.4731 10.0413 2.45183 10.0048 2.47007 9.96228C2.48829 9.93189 2.52779 9.92581 2.58855 9.94405C2.64932 9.97443 2.67059 10.0109 2.65236 10.0534ZM2.9349 10.3633C2.89845 10.4058 2.84984 10.3967 2.78907 10.336C2.73438 10.2691 2.72831 10.2205 2.77084 10.1901C2.80731 10.1537 2.85591 10.1628 2.91668 10.2175C2.97136 10.2843 2.97745 10.3329 2.9349 10.3633ZM4.11069 11.3842C4.08639 11.4571 4.02866 11.4753 3.93751 11.4388C3.83422 11.4145 3.79471 11.3689 3.81902 11.3022C3.84333 11.2353 3.90106 11.214 3.9922 11.2384C4.08942 11.2687 4.12892 11.3173 4.11069 11.3842ZM4.68492 11.4298C4.68492 11.4965 4.6363 11.53 4.53908 11.53C4.43578 11.5422 4.38413 11.5087 4.38413 11.4298C4.38413 11.3629 4.43274 11.3295 4.52997 11.3295C4.63326 11.3173 4.68492 11.3507 4.68492 11.4298ZM5.21356 11.3385C5.22572 11.3994 5.18318 11.4419 5.08596 11.4661C4.98873 11.4905 4.93404 11.4661 4.92189 11.3933C4.90974 11.3203 4.95227 11.2748 5.0495 11.2565C5.14672 11.2444 5.20141 11.2718 5.21356 11.3385ZM14 2.625V11.375C14 12.0981 13.7433 12.7164 13.2298 13.2298C12.7164 13.7433 12.0981 14 11.375 14H9.33337C9.23614 14 9.1617 13.9971 9.11006 13.991C9.05841 13.9849 8.99916 13.9696 8.93233 13.9453C8.86548 13.9211 8.81687 13.877 8.78649 13.8131C8.75611 13.7494 8.74091 13.6658 8.74091 13.5626V11.3842C8.74091 10.7947 8.58293 10.3633 8.26696 10.0899C8.61331 10.0534 8.92473 9.99873 9.20121 9.92581C9.47768 9.8529 9.76327 9.73441 10.058 9.57034C10.3527 9.40628 10.5988 9.20425 10.7963 8.96422C10.9938 8.72421 11.1547 8.40519 11.2793 8.00719C11.4039 7.60918 11.4661 7.15193 11.4661 6.63544C11.4661 5.9002 11.2262 5.27432 10.7461 4.75783C10.9709 4.20488 10.9466 3.58508 10.6732 2.89845C10.5031 2.84376 10.257 2.87718 9.93493 2.99871C9.61289 3.12023 9.33337 3.25392 9.09639 3.39975L8.75003 3.6185C8.18492 3.46051 7.60159 3.38152 7.00002 3.38152C6.39846 3.38152 5.81512 3.46051 5.25002 3.6185C5.15279 3.55166 5.02367 3.46963 4.86265 3.37241C4.70162 3.27518 4.44793 3.15821 4.10158 3.02149C3.75522 2.88477 3.49394 2.84376 3.31773 2.89845C3.05036 3.58508 3.02909 4.20488 3.25392 4.75783C2.77388 5.27432 2.53386 5.9002 2.53386 6.63544C2.53386 7.15193 2.59615 7.60767 2.72072 8.00263C2.84528 8.39759 3.00479 8.71661 3.19923 8.95967C3.39368 9.20272 3.63825 9.40628 3.93296 9.57034C4.22766 9.73441 4.51325 9.8529 4.78973 9.92581C5.0662 9.99873 5.37763 10.0534 5.72398 10.0899C5.48092 10.3086 5.33205 10.6216 5.27736 11.0286C5.14975 11.0895 5.01304 11.135 4.86721 11.1654C4.72137 11.1958 4.5482 11.211 4.34768 11.211C4.14715 11.211 3.94815 11.1457 3.75067 11.015C3.55318 10.8844 3.38456 10.6945 3.2448 10.4453C3.12935 10.2509 2.982 10.0929 2.80274 9.97139C2.62349 9.84986 2.4731 9.77695 2.35157 9.75263L2.16928 9.72529C2.04167 9.72529 1.95356 9.73897 1.90495 9.76631C1.85634 9.79365 1.84115 9.8286 1.85938 9.87113C1.87761 9.91366 1.90495 9.9562 1.94141 9.99873C1.97788 10.0413 2.01737 10.0777 2.0599 10.1081L2.1237 10.1537C2.25738 10.2144 2.38955 10.3299 2.52019 10.5C2.65083 10.6702 2.74654 10.8251 2.80731 10.9649L2.89845 11.1745C2.97745 11.4054 3.11112 11.5922 3.29949 11.7351C3.48786 11.8779 3.69142 11.969 3.91017 12.0085C4.12892 12.0481 4.34008 12.0693 4.54363 12.0723C4.74719 12.0754 4.91582 12.0647 5.0495 12.0404L5.25913 12.004C5.25913 12.2349 5.26065 12.5477 5.26369 12.9428C5.26672 13.3377 5.26825 13.5443 5.26825 13.5626C5.26825 13.6962 5.23483 13.798 5.16798 13.8679C5.10115 13.9377 5.03431 13.9772 4.96746 13.9864C4.90063 13.9955 4.80036 14 4.66668 14H2.625C1.90191 14 1.28364 13.7433 0.770185 13.2298C0.256728 12.7164 0 12.0981 0 11.375V2.625C0 1.90191 0.256728 1.28364 0.770185 0.770185C1.28364 0.256728 1.90191 0 2.625 0H11.375C12.0981 0 12.7164 0.256728 13.2298 0.770185C13.7433 1.28364 14 1.90191 14 2.625Z" fill="black"/>
</g>
<defs>
<clipPath id="clip0_116_8">
<rect width="14" height="14" rx="2.7" fill="white"/>
</clipPath>
</defs>
</svg>
