<svg width="24" height="24" viewBox="0 0 24 24" fill="none" xmlns="http://www.w3.org/2000/svg">
<path fill-rule="evenodd" clip-rule="evenodd" d="M22.91 2.388C22.8497 2.28282 22.7628 2.19536 22.658 2.13445C22.5532 2.07353 22.4342 2.0413 22.313 2.041L1.688 2.043C1.55136 2.0427 1.41774 2.08316 1.30422 2.15919C1.19069 2.23522 1.10241 2.34338 1.05067 2.46984C0.998928 2.59629 0.986069 2.73531 1.01374 2.86911C1.04141 3.00292 1.10834 3.12543 1.206 3.221L7.26 9.16C7.36077 9.25876 7.48955 9.32403 7.62877 9.34694C7.768 9.36985 7.9109 9.34926 8.038 9.288L15.65 5.631C15.8092 5.54897 15.9931 5.52892 16.1662 5.57473C16.3393 5.62055 16.4893 5.72897 16.587 5.879C16.6781 6.03309 16.7056 6.21663 16.6636 6.39065C16.6216 6.56466 16.5134 6.71545 16.362 6.811L9.218 11.331C9.09688 11.4082 9.00287 11.5213 8.9491 11.6545C8.89532 11.7877 8.88445 11.9343 8.918 12.074L11.02 20.766C11.0521 20.8989 11.1231 21.0191 11.2239 21.1114C11.3248 21.2037 11.4508 21.2638 11.586 21.284C11.6201 21.2894 11.6545 21.292 11.689 21.292C11.8081 21.2919 11.9252 21.2608 12.0287 21.2017C12.1321 21.1426 12.2184 21.0576 12.279 20.955L22.903 3.08C22.9652 2.97556 22.9986 2.8565 22.9998 2.73494C23.0011 2.61339 22.9701 2.49368 22.91 2.388Z" fill="#262626"/>
</svg>
