<svg width="24" height="24" viewBox="0 0 24 24" fill="none" xmlns="http://www.w3.org/2000/svg">
   <style>
        @media (prefers-color-scheme: dark) {
            path { 
                fill: white; 
            }
        }
    </style>
<g clip-path="url(#clip0_8_14)">
<path d="M12.075 24C5.415 24 0 18.585 0 11.925C0 5.985 4.245 0.975005 10.08 4.57955e-06C10.815 -0.0449954 11.385 0.330005 11.565 0.900005C11.73 1.47 11.49 2.07 10.95 2.4C8.4 3.795 6.825 6.435 6.825 9.315C6.825 13.65 10.35 17.19 14.7 17.19C16.1156 17.1897 17.505 16.8078 18.7219 16.0845C19.9388 15.3613 20.9382 14.3234 21.615 13.08C21.9 12.525 22.53 12.27 23.13 12.48C23.76 12.69 24.12 13.32 24 13.995C23.5134 16.8021 22.0492 19.3465 19.8666 21.1776C17.6841 23.0088 14.924 24.0086 12.075 24ZM8.7 1.98C4.53 3.375 1.605 7.32 1.605 11.925C1.605 17.7 6.3 22.41 12.09 22.41C16.65 22.41 20.58 19.515 22.005 15.33C21.1195 16.4119 20.0049 17.2839 18.7417 17.883C17.4785 18.4822 16.0981 18.7937 14.7 18.795C9.48 18.795 5.235 14.55 5.235 9.33C5.22 6.435 6.525 3.765 8.7 1.98Z" fill="black"/>
</g>
<defs>
<clipPath id="clip0_8_14">
<rect width="24" height="24" fill="white"/>
</clipPath>
</defs>
</svg>
