<svg width="24" height="24" viewBox="0 0 24 24" fill="none" xmlns="http://www.w3.org/2000/svg">
<path d="M12.202 3.203H5.25C4.45435 3.203 3.69129 3.51907 3.12868 4.08168C2.56607 4.64429 2.25 5.40735 2.25 6.203V18.75C2.25 19.5457 2.56607 20.3087 3.12868 20.8713C3.69129 21.4339 4.45435 21.75 5.25 21.75H17.797C18.5927 21.75 19.3557 21.4339 19.9183 20.8713C20.4809 20.3087 20.797 19.5457 20.797 18.75V11.798" stroke="black" stroke-width="2" stroke-linecap="round" stroke-linejoin="round"/>
<path d="M10.002 17.226H6.774V13.998L18.607 2.165C18.7386 2.03341 18.8948 1.92903 19.0667 1.85781C19.2386 1.78659 19.4229 1.74994 19.609 1.74994C19.7951 1.74994 19.9794 1.78659 20.1513 1.85781C20.3232 1.92903 20.4794 2.03341 20.611 2.165L21.835 3.39C21.9666 3.52158 22.071 3.67779 22.1422 3.84972C22.2134 4.02164 22.2501 4.20591 22.2501 4.392C22.2501 4.57809 22.2134 4.76236 22.1422 4.93428C22.071 5.1062 21.9666 5.26242 21.835 5.394L10.002 17.226Z" stroke="black" stroke-width="2" stroke-linecap="round" stroke-linejoin="round"/>
<path d="M16.848 3.924L20.076 7.153" stroke="black" stroke-width="2" stroke-linecap="round" stroke-linejoin="round"/>
</svg>
