<svg width="24" height="24" viewBox="0 0 24 24" fill="none" xmlns="http://www.w3.org/2000/svg">

<path d="M11.1922 3.93947L12.0108 5.06127L12.8152 3.92921C13.9861 2.28118 15.3883 1.55 17.3 1.55C20.3746 1.55 23 4.27619 23 7.8C23 10.955 20.7845 12.9687 18.0873 15.2089C17.8128 15.4087 17.5359 15.6571 17.3041 15.8651C17.2108 15.9488 17.1248 16.0259 17.0492 16.0907L17.04 16.0986L17.031 16.1067L16.031 17.0067L16.031 17.0067L16.0229 17.0141C14.7715 18.1654 13.9306 18.932 13.3415 19.4474C12.7382 19.9753 12.4494 20.1942 12.2855 20.2925C12.2252 20.3287 12.1585 20.3587 12.0968 20.3783C12.0368 20.3974 12.0037 20.3997 12.0003 20.4C12 20.4 11.9999 20.4 12 20.4C12.0001 20.4 12 20.4 11.9997 20.4C11.9963 20.3997 11.9632 20.3974 11.9032 20.3783C11.8415 20.3587 11.7748 20.3287 11.7145 20.2925C11.5541 20.1962 11.2228 19.9348 10.5927 19.3883C10.1545 19.0082 9.60712 18.5221 8.92067 17.9125C8.6561 17.6776 8.37089 17.4243 8.06331 17.1517L8.06334 17.1516L8.05618 17.1454L6.93166 16.1676C6.60691 15.8455 6.2426 15.5339 5.9474 15.2878C3.27309 12.9733 1 10.916 1 7.8C1 4.27233 3.62562 1.55855 6.68649 1.59991L6.68649 1.6H6.7C8.61517 1.6 10.0212 2.3347 11.1922 3.93947Z" fill="none" stroke="black" stroke-width="2"/>
</svg>
