<svg width="24" height="24" viewBox="0 0 24 24" fill="none" xmlns="http://www.w3.org/2000/svg">

<path d="M17.3 1.55C15.05 1.55 13.35 2.45 12 4.35C10.65 2.5 8.95 1.6 6.7 1.6C3 1.55 0 4.8 0 8.8C0 12.45 2.7 14.8 5.3 17.05C5.6 17.3 5.95 17.6 6.25 17.9L7.4 18.9C9.6 20.85 10.7 21.85 11.2 22.15C11.45 22.3 11.75 22.4 12 22.4C12.25 22.4 12.55 22.3 12.8 22.15C13.3 21.85 14.2 21.05 16.7 18.75L17.7 17.85C18.05 17.55 18.35 17.25 18.7 17C21.35 14.8 24 12.5 24 8.8C24 4.8 21 1.55 17.3 1.55Z" fill="#262626"/>
</svg>
