<svg width="390" height="340" viewBox="0 0 390 340" fill="none" xmlns="http://www.w3.org/2000/svg">
<path fill-rule="evenodd" clip-rule="evenodd" d="M326.05 0.608816C325.71 0.948816 322.652 1.34981 319.254 1.49981C310.535 1.88381 303.851 6.68681 296.197 18.0648C293.097 22.6748 289.932 26.8428 289.165 27.3268C288.227 27.9178 285.541 27.0238 280.969 24.5988C273.453 20.6108 268.177 19.9868 263.3 22.5088C260.142 24.1418 258.442 28.3518 259.966 30.7678C260.475 31.5748 263.137 33.0728 265.881 34.0958C270.735 35.9068 278.34 41.3268 277.335 42.2598C277.06 42.5158 264.46 43.2548 249.335 43.9038C234.21 44.5528 213.579 45.7448 203.489 46.5518L185.144 48.0198L179.421 42.7558L173.699 37.4908L176.767 36.9298C179.49 36.4318 179.273 36.3028 174.835 35.7808C172.085 35.4578 166.56 34.0078 162.557 32.5588C147.705 27.1818 129.762 28.4458 114.835 35.9188C110.435 38.1218 104.978 41.7198 102.709 43.9148C100.44 46.1098 98.3161 47.6388 97.9901 47.3118C97.6631 46.9858 92.1941 47.7408 85.8351 48.9908C79.4761 50.2408 74.4691 51.4588 74.7081 51.6978C74.9471 51.9368 80.1461 51.1348 86.2611 49.9168C92.3761 48.6988 97.6021 47.9248 97.8741 48.1968C98.2951 48.6178 92.3811 59.2788 90.9111 60.7478C90.6371 61.0218 83.8431 62.7158 75.8141 64.5118C67.7841 66.3088 60.9481 68.0448 60.6211 68.3708C60.2951 68.6968 62.3151 74.0328 65.1101 80.2278C79.2351 111.538 90.3031 144.514 98.3651 179.313C99.9981 186.365 101.335 192.563 101.335 193.086C101.335 193.609 100.203 193.295 98.8191 192.388C97.0281 191.215 94.9041 190.874 91.4521 191.206L86.6011 191.672L84.3521 181.081C76.3421 143.369 59.9041 94.1758 47.2661 70.0968C44.5541 64.9308 42.3351 60.5428 42.3351 60.3468C42.3351 60.1508 43.0851 59.9908 44.0021 59.9908C44.9181 59.9908 45.4021 59.7248 45.0771 59.3998C44.7521 59.0738 43.5741 59.0978 42.4591 59.4518C40.5531 60.0568 40.7751 60.7638 46.1801 71.2928C49.3421 77.4518 53.4401 86.2498 55.2861 90.8448L58.6441 99.1988L55.1071 105.845C53.1621 109.5 50.7931 114.895 49.8421 117.832C47.4411 125.253 43.3301 129.472 33.9171 134.179C23.5821 139.346 18.0601 143.862 15.4291 149.297C12.6051 155.131 12.7811 158.436 16.4981 169.365L19.6621 178.665L16.3301 184.578C5.76406 203.329 4.04907 208.755 6.30707 216.291C6.98207 218.546 9.08507 221.941 10.9801 223.836L14.4241 227.28L24.9811 226.597C37.1001 225.814 38.3351 226.316 38.3351 232.024C38.3351 234.925 37.4101 236.982 34.3811 240.814C32.2061 243.565 29.9121 246.134 29.2831 246.523C28.6541 246.912 26.8331 249.289 25.2371 251.806C17.8401 263.47 24.4851 279.054 39.0941 284.307C55.5521 290.225 76.7961 285.41 91.0201 272.538C94.3911 269.487 97.3521 266.991 97.6001 266.991C98.8031 266.991 102.305 311.677 102.322 327.241C102.335 339.827 102.364 339.99 104.585 339.875C106.371 339.783 106.461 339.662 105.024 339.29C103.636 338.93 103.351 338.192 103.805 336.127C105.274 329.437 101.707 283.297 97.2091 250.82C95.0721 235.385 95.0681 235.103 96.9371 232.191C99.1511 228.742 106.358 220.656 106.776 221.152C106.934 221.338 108.537 231.166 110.339 242.991C112.142 254.816 113.916 264.831 114.281 265.247C114.647 265.662 121.169 264.853 128.775 263.448C177.863 254.381 230.58 249.644 283.335 249.561C317.123 249.507 317.997 249.556 325.69 251.935L333.544 254.365L335.381 251.93C337.145 249.591 337.609 249.509 347.117 249.835L357.016 250.175L357.676 236.425C358.038 228.862 358.335 217.844 358.335 211.94C358.335 203.32 358.631 201.092 359.835 200.629C361.712 199.909 361.806 195.365 359.965 194.291C358.939 193.692 358.296 188.271 357.407 172.739C356.253 152.57 356.371 149.991 358.442 149.991C358.986 149.991 361.235 149.12 363.439 148.055C368.146 145.78 367.964 145.476 368.731 156.894C369.27 164.906 369.181 165.405 366.816 167.597C363.605 170.572 363.688 171.584 367.429 175.079L370.522 177.968L371.069 213.73C371.401 235.459 371.149 259.128 370.425 274.051C369.274 297.795 366.949 326.71 366.124 327.535C365.903 327.756 362.147 327.506 357.779 326.98C353.41 326.453 341.51 325.823 331.335 325.579L312.835 325.136L329.835 325.97C339.185 326.429 351.302 327.307 356.761 327.922C362.22 328.536 367.005 328.691 367.394 328.265C368.22 327.361 369.854 309.761 371.411 284.991C372.647 265.321 372.979 195.258 371.887 184.457L371.175 177.423L375.121 177.799C378.921 178.162 379.146 178.012 381.201 173.768C383.849 168.297 383.892 165.805 381.375 163.527C378.961 161.342 374.741 162.136 373.85 164.942C373.511 166.013 372.645 166.664 371.928 166.388C371.035 166.046 370.412 162.626 369.956 155.57L369.289 145.252L372.238 142.094C377.939 135.992 377.016 129.971 369.762 125.95C367.08 124.464 366.762 123.671 365.737 115.914C365.126 111.281 364.746 107.342 364.894 107.16C365.042 106.978 366.107 107.334 367.259 107.951C369.035 108.901 369.739 108.658 371.869 106.36C375.194 102.772 376.029 99.2558 374.03 97.2578C372.715 95.9418 371.992 95.8898 369.48 96.9308C363.685 99.3308 363.383 98.8478 359.839 81.4908C356.527 65.2748 352.372 49.8088 348.152 37.9908L345.83 31.4908L340.368 30.9908L334.905 30.4908L341.62 25.2238C347.598 20.5348 348.335 19.5778 348.335 16.4968C348.335 12.7708 346.223 10.7128 341.105 9.45482C338.838 8.89782 338.541 8.47482 339.352 6.95982C340.55 4.71982 339.701 2.25682 337.283 0.962816C335.279 -0.109184 327.029 -0.369184 326.05 0.608816ZM336.791 2.33482C339.682 4.44882 338.103 8.64282 333.729 10.4708C326.416 13.5258 316.311 24.2468 316.347 28.9118C316.354 29.7808 317.512 28.4658 318.921 25.9908C324.133 16.8378 331.972 10.9908 339.031 10.9908C346.633 10.9908 349.932 16.9958 344.704 21.3168C332.897 31.0768 331.577 32.9588 328.45 44.4908C326.725 50.8538 323.668 54.9368 319.064 57.0268C316.738 58.0828 315.427 58.9568 316.151 58.9688C316.874 58.9808 318.404 58.4888 319.549 57.8758C321.602 56.7778 321.622 56.8728 320.92 64.6098C318.446 91.9178 308.37 113.495 290.218 130.358C281.639 138.328 268.797 146.456 258.236 150.599C251.554 153.221 251.277 153.249 249.337 151.493C245.802 148.294 246.74 144.869 252.075 141.498C264.049 133.933 277.891 117.268 283.645 103.489C288.462 91.9548 289.717 85.3478 289.778 71.2168L289.835 57.9428L292.835 58.4658C295.256 58.8878 294.969 58.5908 291.348 56.9298C285.053 54.0418 283.454 52.3598 280.243 45.2468C277.995 40.2678 276.482 38.4058 272.772 36.0528C270.213 34.4298 266.849 32.8238 265.296 32.4818C256.684 30.5908 260.784 21.9908 270.297 21.9908C271.855 21.9908 276.329 23.6368 280.239 25.6478C288.787 30.0448 290.623 29.6278 294.83 22.3288C301.608 10.5708 310.427 2.99082 317.33 2.99082H320.933L315.255 8.82982C309.126 15.1318 303.691 22.6798 304.615 23.6038C304.93 23.9188 305.912 22.7768 306.797 21.0648C309.132 16.5478 321.327 3.91881 324.835 2.38281C328.755 0.666814 334.478 0.643818 336.791 2.33482ZM299.635 6.74082C297.916 8.25382 295.75 10.8408 294.821 12.4908C293.206 15.3608 293.267 15.3388 296.227 11.9908C297.929 10.0658 300.474 7.47782 301.884 6.24082C303.293 5.00382 304.067 3.99082 303.603 3.99082C303.139 3.99082 301.353 5.22782 299.635 6.74082ZM376.535 13.1908C374.719 15.0068 375.093 18.8428 377.404 22.0878C379.094 24.4608 379.966 24.8798 382.154 24.3738C387.073 23.2348 389.483 21.0998 389.145 18.1778C388.906 16.1058 388.223 15.4198 386.158 15.1818C384.686 15.0108 382.943 14.2238 382.286 13.4318C380.831 11.6778 378.159 11.5668 376.535 13.1908ZM241.124 31.7318C244.583 31.9278 249.983 31.9268 253.124 31.7288C256.265 31.5308 253.435 31.3708 246.835 31.3728C240.235 31.3748 237.665 31.5368 241.124 31.7318ZM222.085 32.7228C224.423 32.9338 228.247 32.9338 230.585 32.7228C232.922 32.5128 231.01 32.3398 226.335 32.3398C221.66 32.3398 219.747 32.5128 222.085 32.7228ZM348.018 42.2118C354.339 60.9878 362.006 95.1828 360.89 99.6278C360.537 101.034 360.903 103.234 361.748 104.786C363.062 107.198 365.953 123.853 365.154 124.408C364.979 124.53 363.148 125.596 361.085 126.777C358.248 128.401 357.335 128.585 357.335 127.534C357.335 126.77 356.293 124.872 355.02 123.318C353.238 121.142 352.288 117.778 350.894 108.7C349.898 102.215 349.252 96.8148 349.459 96.6998C349.666 96.5848 351.185 95.7388 352.835 94.8198C359.221 91.2618 357.938 83.9908 350.924 83.9908C347.106 83.9908 346.627 82.9788 342.419 65.9908C337.115 44.5838 337.096 44.5368 333.416 44.1728C330.372 43.8708 330.241 43.6898 330.891 40.6728C331.268 38.9228 332.22 36.2308 333.007 34.6908C334.332 32.0978 334.821 31.9118 339.592 32.1908L344.745 32.4908L348.018 42.2118ZM363.722 33.4238C363.392 34.2858 362.134 34.9908 360.928 34.9908C356.775 34.9908 354.772 39.4488 357.796 41.9578C358.599 42.6248 361.035 43.4088 363.208 43.7008C366.862 44.1908 367.284 43.9898 368.807 41.0448C371.245 36.3298 370.513 32.5688 367.079 32.1738C365.282 31.9668 364.114 32.4018 363.722 33.4238ZM207.085 33.7138C208.872 33.9358 211.798 33.9358 213.585 33.7138C215.372 33.4928 213.91 33.3108 210.335 33.3108C206.76 33.3108 205.298 33.4928 207.085 33.7138ZM294.996 38.2408C299.449 44.8718 299.639 45.0498 298.834 41.8438C298.238 39.4688 298.545 39.0768 301.855 37.9838C303.953 37.2918 307.327 37.0378 309.688 37.3938C312.611 37.8348 313.392 37.7248 312.335 37.0208C310.167 35.5768 304.806 35.7668 300.827 37.4298C297.466 38.8338 297.334 38.7978 295.291 35.9298C291.601 30.7458 291.339 32.7948 294.996 38.2408ZM194.103 34.7158C195.9 34.9378 198.6 34.9338 200.103 34.7058C201.606 34.4768 200.135 34.2948 196.835 34.3008C193.535 34.3058 192.306 34.4928 194.103 34.7158ZM182.585 35.7068C184.097 35.9358 186.573 35.9358 188.085 35.7068C189.597 35.4778 188.36 35.2908 185.335 35.2908C182.31 35.2908 181.073 35.4778 182.585 35.7068ZM65.3351 53.4908C62.8601 54.2078 61.5101 54.8298 62.3351 54.8738C63.1601 54.9168 66.0851 54.3258 68.8351 53.5608C71.5851 52.7958 72.9351 52.1738 71.8351 52.1788C70.7351 52.1828 67.8101 52.7738 65.3351 53.4908ZM202.9 53.8808C205.136 54.8968 208.675 57.2288 210.764 59.0628L214.562 62.3978L211.699 64.8158L208.835 67.2348L212.667 64.9808C216.191 62.9078 216.629 62.8558 218.111 64.3378C219.593 65.8198 219.542 66.1418 217.474 68.3428C216.237 69.6598 213.445 71.5388 211.27 72.5198C209.094 73.5008 207.524 74.5128 207.779 74.7688C208.035 75.0238 210.664 73.8668 213.623 72.1978L219.001 69.1618L220.673 73.8268C221.593 76.3918 222.343 79.6678 222.34 81.1058C222.334 84.4908 219.081 88.5868 215.733 89.4268C214.284 89.7908 213.328 90.3178 213.609 90.5978C214.981 91.9708 221.433 87.8528 222.974 84.6208C224.55 81.3168 224.527 80.7938 222.525 74.3158C221.366 70.5618 220.28 66.5938 220.114 65.4988C219.947 64.4028 218.662 62.9558 217.259 62.2828C215.856 61.6108 213.837 60.0708 212.772 58.8618C208.399 53.8968 221.574 62.4718 226.354 67.7018C243.385 86.3358 235.65 116.542 209.185 134.75L204.613 137.896L203.495 135.443C202.881 134.095 201.958 132.991 201.444 132.991C200.93 132.991 201.812 135.354 203.405 138.241C204.997 141.128 207.001 145.575 207.858 148.122C209.321 152.47 209.78 152.885 215.376 154.926C225.139 158.486 222.428 162.991 210.522 162.991C201.928 162.991 198.298 160.651 196.265 153.8C194.344 147.33 189.077 137.265 188.507 138.975C188.289 139.63 188.611 140.667 189.223 141.279C191.499 143.555 190.159 144.793 183.585 146.49C167.965 150.521 150.989 149.311 138.693 143.29C133.696 140.843 133.239 140.351 133.821 138.04C135.836 130.05 135.51 117.271 132.943 103.586C130.139 88.6388 129.721 82.0068 131.385 78.8978C133.176 75.5518 147.065 65.1958 154.631 61.5648C162.109 57.9768 173.329 54.6288 181.659 53.4998C186.381 52.8598 186.458 52.8918 185.316 55.0258C184.473 56.6018 184.452 57.5078 185.242 58.2978C186.033 59.0888 186.335 58.7978 186.335 57.2478C186.335 52.2208 195.253 50.4078 202.9 53.8808ZM373.99 54.8198C373.08 55.8258 372.335 57.1328 372.335 57.7258C372.335 58.3188 371.442 58.5698 370.351 58.2848C364.628 56.7878 360.272 61.0108 362.355 66.0388C363.566 68.9638 368.064 71.2108 375.06 72.3888C378.017 72.8858 378.488 72.5798 380.712 68.7108C384.171 62.6958 384.871 58.4568 382.9 55.4498C380.944 52.4638 376.412 52.1428 373.99 54.8198ZM52.0381 56.7098C48.8491 57.5458 46.4371 58.4258 46.6771 58.6658C47.1261 59.1148 59.5051 56.1388 60.2521 55.4018C60.9911 54.6728 57.9741 55.1528 52.0381 56.7098ZM147.97 69.0638C146.252 70.4148 145.355 72.0678 145.391 73.8138C145.444 76.2928 145.536 76.2318 146.641 72.9908C147.543 70.3478 148.692 69.1988 151.335 68.2968C153.743 67.4758 154.175 67.0858 152.72 67.0468C151.557 67.0158 149.419 67.9238 147.97 69.0638ZM158.341 67.9248C163.137 69.3838 166.865 71.8638 171.7 76.8138L176.566 81.7938L173.919 83.5278C169.974 86.1128 171.508 86.4108 175.782 83.8898C179.192 81.8778 179.607 81.8338 181.101 83.3288C182.596 84.8228 182.538 85.1458 180.359 87.4658C179.059 88.8488 175.734 91.1078 172.969 92.4858C170.204 93.8638 168.557 94.9908 169.308 94.9908C170.059 94.9908 173.089 93.6268 176.043 91.9608L181.412 88.9308L182.873 92.4288C183.677 94.3528 184.335 97.2248 184.335 98.8108C184.335 102.935 180.387 108.277 176.3 109.685C173.714 110.575 173.397 110.892 175.05 110.935C178.073 111.012 183.97 105.625 185.311 101.563C186.189 98.9018 186.077 97.3598 184.752 93.8628C183.84 91.4588 183.137 88.1728 183.189 86.5618C183.297 83.1778 181.816 80.9908 179.416 80.9908C178.494 80.9908 175.962 79.1338 173.788 76.8638C168.577 71.4248 161.569 66.9698 158.389 67.0768L155.835 67.1628L158.341 67.9248ZM142.335 108.541C142.335 108.843 143.054 110.48 143.932 112.179C145.18 114.591 145.289 115.796 144.432 117.677C142.905 121.029 143.063 124.157 144.892 126.768C147.06 129.864 154.478 129.852 159.335 126.745C161.26 125.513 164.635 123.984 166.835 123.347C170.786 122.202 170.796 122.186 167.679 122.089C164.549 121.992 164.531 121.962 165.584 118.531C167.003 113.907 165.253 111.665 160.644 112.203C158.131 112.497 157.206 112.159 156.771 110.79C155.949 108.2 152.097 108.555 148.903 111.515L146.18 114.04L145.038 111.015C144.059 108.422 142.335 106.844 142.335 108.541ZM27.4801 130.061C23.7611 131.551 19.4331 134.933 18.2031 137.311C17.2671 139.121 17.5901 139.009 20.1081 136.647C21.7761 135.083 25.3221 132.734 27.9881 131.428C32.6661 129.137 32.2931 128.133 27.4801 130.061ZM195.345 194.049L194.279 196.491L194.793 193.991C195.076 192.616 195.404 188.116 195.523 183.991L195.737 176.491L196.075 184.049C196.26 188.207 195.932 192.707 195.345 194.049ZM97.1511 192.856C98.0751 193.442 96.8401 194.488 93.0101 196.362C87.1261 199.24 80.4881 205.72 77.8851 211.127C76.0771 214.88 76.4661 214.462 82.6341 206.012C88.7431 197.645 101.534 192.333 105.654 196.453C107.625 198.424 107.879 203.308 106.085 204.753C105.398 205.307 103.403 206.066 101.652 206.44C99.9021 206.814 96.5121 208.844 94.1191 210.95C89.5981 214.929 83.8781 224.13 84.5971 226.265C84.8251 226.939 85.9331 225.411 87.0601 222.869C89.4371 217.509 95.4581 210.496 99.4601 208.426C103.969 206.095 108.218 206.553 109.335 209.491C110.708 213.102 109.143 216.351 102.657 223.357C94.6661 231.988 89.9761 242.872 93.6411 244.278C94.9111 244.765 97.9531 262.706 96.9381 263.721C96.6811 263.979 94.0891 262.907 91.1781 261.34C83.9951 257.472 75.4681 248.714 71.8351 241.471C69.0531 235.926 68.8401 234.727 68.8981 224.991C68.9481 216.493 69.3681 213.591 71.0991 209.771C73.6931 204.048 80.4531 196.511 85.2851 193.957C89.0111 191.987 94.9161 191.439 97.1511 192.856ZM67.6171 196.353C69.3871 197.102 71.6701 198.653 72.6911 199.799C74.5021 201.832 74.4991 201.953 72.5821 204.687C71.5011 206.229 69.8161 209.932 68.8371 212.916L67.0581 218.34L64.8251 212.173C63.5971 208.781 62.1391 205.44 61.5861 204.748C59.3221 201.919 59.2121 199.114 61.2841 197.042C63.7171 194.609 63.5431 194.628 67.6171 196.353ZM191.135 198.191C193.843 200.899 191.902 209.97 186.147 221.491C180.099 233.598 168.643 246.298 156.82 254.001C150.447 258.153 149.252 258.525 132.725 261.497C123.16 263.217 115.313 264.37 115.287 264.058C115.261 263.746 114.227 257.078 112.991 249.241C111.754 241.404 110.988 234.996 111.289 235.002C111.589 235.008 114.044 235.683 116.744 236.502C127.29 239.701 142.277 237.804 153.432 231.859C164.501 225.959 177.159 213.127 182.107 202.791C184.351 198.102 185.287 197.083 187.385 197.041C188.787 197.014 190.475 197.531 191.135 198.191ZM2.26006 200.13C0.177065 204.023 -0.469935 207.718 0.335065 211.126C1.09907 214.36 1.13407 214.305 1.23307 209.709C1.28907 207.079 1.98706 203.366 2.78406 201.459C4.38606 197.624 4.05406 196.78 2.26006 200.13ZM250.402 224.994C249.233 232.532 246.488 240.636 243.4 245.671C241.146 249.346 242.325 249.119 213.841 251.373L194.847 252.877L187.515 250.415C179.143 247.605 172.335 244.336 172.335 243.126C172.335 242.672 173.288 241.444 174.454 240.396C177.32 237.819 184.595 227.477 187.26 222.19L189.428 217.889L194.409 222.368C204.016 231.005 220.908 233.83 233.784 228.952C240.009 226.594 248.673 219.485 250.014 215.636C250.761 213.492 250.762 213.492 251.121 215.767C251.319 217.019 250.996 221.171 250.402 224.994ZM165.335 222.128C163.41 223.809 160.174 226.308 158.144 227.681L154.452 230.179L150.313 226.853L146.173 223.526L154.04 222.306C158.367 221.634 163.016 220.642 164.371 220.101C168.66 218.389 168.941 218.98 165.335 222.128ZM192.256 233.59C190.924 235.015 187.923 237.306 185.585 238.681C180.589 241.62 180.198 242.283 184.305 240.852C187.657 239.683 196.144 232.509 195.256 231.595C194.937 231.267 193.587 232.165 192.256 233.59ZM235.429 235.241C234.958 236.479 233.838 239.248 232.941 241.395C232.043 243.541 231.506 245.496 231.748 245.737C232.38 246.369 234.938 241.133 236.144 236.741C237.27 232.64 236.797 231.647 235.429 235.241ZM346.381 257.436C345.721 258.231 345.33 259.918 345.511 261.186C345.747 262.833 345.038 263.997 343.025 265.264C340.303 266.979 340.125 266.971 337.638 265.014C331.563 260.236 323.512 264.532 324.71 271.913C325.309 275.607 330.553 281.699 336.096 285.142L339.357 287.168L343.68 284.635C350.169 280.832 355.335 274.668 355.335 270.729C355.335 268.523 356 267.057 357.397 266.184C360.515 264.237 359.692 259.59 356.158 259.182C354.686 259.011 352.943 258.224 352.286 257.432C350.752 255.583 347.917 255.585 346.381 257.436ZM293.561 261.632C295.053 262.061 294.929 262.436 292.651 264.396C290.105 266.585 290.102 269.008 292.644 268.976C293.373 268.966 293.265 268.6 292.367 268.032C291.137 267.254 291.277 266.776 293.232 265.08C296.187 262.518 300.683 262.933 303.356 266.015C304.444 267.27 305.351 267.891 305.37 267.394C305.39 266.897 306.049 267.616 306.835 268.991C308.838 272.495 308.671 276.253 306.404 278.686C303.984 281.284 304.156 287.331 306.664 287.815C308.095 288.091 308.19 287.741 307.313 285.433C306.49 283.268 306.704 281.86 308.386 278.386C310.721 273.562 310.386 270.897 306.97 267.146C304.161 264.061 300.736 262.385 295.835 261.697C293.635 261.388 292.612 261.358 293.561 261.632ZM284.702 263.909C277.475 268.316 276.122 275.59 281.543 280.89C283.307 282.615 286.344 284.446 288.293 284.96C292.471 286.063 304.358 285.85 303.643 284.686C303.372 284.244 300.801 284.085 297.93 284.334C291.321 284.906 288.012 284.271 285.521 281.95C284.436 280.939 283.275 280.384 282.941 280.718C282.608 281.051 282.335 280.629 282.335 279.78C282.335 278.931 281.66 277.676 280.835 276.991C279.179 275.616 278.769 270.991 280.304 270.991C280.836 270.991 280.985 270.242 280.634 269.327C280.198 268.192 280.375 267.898 281.19 268.401C281.847 268.807 282.32 268.769 282.241 268.315C281.857 266.105 282.474 265.796 283.768 267.55C284.889 269.07 285.466 269.229 286.425 268.283C287.392 267.331 287.38 266.75 286.37 265.533C285.078 263.977 285.917 263.568 290.085 263.722C290.773 263.748 291.335 263.369 291.335 262.88C291.335 261.38 288.001 261.897 284.702 263.909ZM334.335 265.158C334.335 265.799 334.636 266.023 335.004 265.655C335.955 264.705 339.335 267.993 339.335 269.869C339.335 270.918 340.309 270.37 342.279 268.214C345.444 264.749 347.671 263.951 346.634 266.655C346.204 267.774 346.378 268.082 347.165 267.596C347.809 267.198 348.335 267.3 348.335 267.821C348.335 268.342 348.898 268.748 349.585 268.722C352.751 268.605 354.002 269.106 354.002 270.491C354.002 271.316 353.289 271.998 352.418 272.006C351.101 272.019 351.072 272.172 352.247 272.916C353.441 273.671 353.402 274.067 351.997 275.472C351.083 276.386 350.335 277.578 350.335 278.121C350.335 278.665 349.885 278.831 349.335 278.491C348.785 278.151 348.335 278.65 348.335 279.599C348.335 280.548 348.062 281.051 347.728 280.717C347.393 280.383 345.931 281.212 344.478 282.561C343.024 283.909 341.249 284.787 340.533 284.513C339.817 284.238 339.506 284.459 339.842 285.002C341.125 287.078 338.679 285.804 334.975 282.468C332.851 280.556 330.639 278.991 330.058 278.991C329.477 278.991 329.275 278.718 329.608 278.385C329.942 278.051 329.342 276.841 328.275 275.696C326.068 273.327 325.684 267.646 327.585 265.487C329.094 263.773 334.335 263.517 334.335 265.158ZM286.106 266.804C286.706 268.603 284.639 268.225 283.941 266.407C283.568 265.434 283.791 264.976 284.522 265.22C285.175 265.438 285.888 266.15 286.106 266.804ZM288.335 265.491C288.335 265.766 288.56 265.991 288.835 265.991C289.11 265.991 289.335 265.766 289.335 265.491C289.335 265.216 289.11 264.991 288.835 264.991C288.56 264.991 288.335 265.216 288.335 265.491ZM295.335 265.491C295.335 265.766 295.56 265.991 295.835 265.991C296.11 265.991 296.335 265.766 296.335 265.491C296.335 265.216 296.11 264.991 295.835 264.991C295.56 264.991 295.335 265.216 295.335 265.491ZM299.335 265.491C299.335 265.766 299.56 265.991 299.835 265.991C300.11 265.991 300.335 265.766 300.335 265.491C300.335 265.216 300.11 264.991 299.835 264.991C299.56 264.991 299.335 265.216 299.335 265.491ZM330.335 265.491C330.335 265.766 330.56 265.991 330.835 265.991C331.11 265.991 331.335 265.766 331.335 265.491C331.335 265.216 331.11 264.991 330.835 264.991C330.56 264.991 330.335 265.216 330.335 265.491ZM297.335 266.991C297.335 267.724 297.635 268.024 298.002 267.658C298.368 267.291 298.368 266.691 298.002 266.324C297.635 265.958 297.335 266.258 297.335 266.991ZM332.335 266.991C332.335 267.724 332.635 268.024 333.002 267.658C333.368 267.291 333.368 266.691 333.002 266.324C332.635 265.958 332.335 266.258 332.335 266.991ZM294.835 267.991C295.175 268.541 295.678 268.991 295.953 268.991C296.228 268.991 296.175 268.541 295.835 267.991C295.495 267.441 294.992 266.991 294.717 266.991C294.442 266.991 294.495 267.441 294.835 267.991ZM288.335 268.491C288.335 268.766 288.56 268.991 288.835 268.991C289.11 268.991 289.335 268.766 289.335 268.491C289.335 268.216 289.11 267.991 288.835 267.991C288.56 267.991 288.335 268.216 288.335 268.491ZM299.335 268.491C299.335 268.766 299.56 268.991 299.835 268.991C300.11 268.991 300.335 268.766 300.335 268.491C300.335 268.216 300.11 267.991 299.835 267.991C299.56 267.991 299.335 268.216 299.335 268.491ZM302.335 268.491C302.335 268.766 302.56 268.991 302.835 268.991C303.11 268.991 303.335 268.766 303.335 268.491C303.335 268.216 303.11 267.991 302.835 267.991C302.56 267.991 302.335 268.216 302.335 268.491ZM327.335 268.893C327.335 269.931 329.237 271.434 329.801 270.841C329.984 270.649 329.504 269.911 328.734 269.202C327.965 268.492 327.335 268.353 327.335 268.893ZM330.335 268.491C330.335 268.766 330.56 268.991 330.835 268.991C331.11 268.991 331.335 268.766 331.335 268.491C331.335 268.216 331.11 267.991 330.835 267.991C330.56 267.991 330.335 268.216 330.335 268.491ZM334.335 268.491C334.335 268.766 334.56 268.991 334.835 268.991C335.11 268.991 335.335 268.766 335.335 268.491C335.335 268.216 335.11 267.991 334.835 267.991C334.56 267.991 334.335 268.216 334.335 268.491ZM337.335 268.491C337.335 268.766 337.56 268.991 337.835 268.991C338.11 268.991 338.335 268.766 338.335 268.491C338.335 268.216 338.11 267.991 337.835 267.991C337.56 267.991 337.335 268.216 337.335 268.491ZM344.335 268.491C344.335 268.766 344.56 268.991 344.835 268.991C345.11 268.991 345.335 268.766 345.335 268.491C345.335 268.216 345.11 267.991 344.835 267.991C344.56 267.991 344.335 268.216 344.335 268.491ZM283.335 270.491C283.335 270.766 283.56 270.991 283.835 270.991C284.11 270.991 284.335 270.766 284.335 270.491C284.335 270.216 284.11 269.991 283.835 269.991C283.56 269.991 283.335 270.216 283.335 270.491ZM286.668 270.658C287.035 271.024 287.635 271.024 288.002 270.658C288.368 270.291 288.068 269.991 287.335 269.991C286.602 269.991 286.302 270.291 286.668 270.658ZM290.335 270.491C290.335 270.766 290.56 270.991 290.835 270.991C291.11 270.991 291.335 270.766 291.335 270.491C291.335 270.216 291.11 269.991 290.835 269.991C290.56 269.991 290.335 270.216 290.335 270.491ZM293.668 270.658C294.035 271.024 294.635 271.024 295.002 270.658C295.368 270.291 295.068 269.991 294.335 269.991C293.602 269.991 293.302 270.291 293.668 270.658ZM297.335 270.491C297.335 270.766 297.56 270.991 297.835 270.991C298.11 270.991 298.335 270.766 298.335 270.491C298.335 270.216 298.11 269.991 297.835 269.991C297.56 269.991 297.335 270.216 297.335 270.491ZM300.668 270.658C301.035 271.024 301.635 271.024 302.002 270.658C302.368 270.291 302.068 269.991 301.335 269.991C300.602 269.991 300.302 270.291 300.668 270.658ZM304.335 270.491C304.335 270.766 304.56 270.991 304.835 270.991C305.11 270.991 305.335 270.766 305.335 270.491C305.335 270.216 305.11 269.991 304.835 269.991C304.56 269.991 304.335 270.216 304.335 270.491ZM332.335 270.491C332.335 270.766 332.56 270.991 332.835 270.991C333.11 270.991 333.335 270.766 333.335 270.491C333.335 270.216 333.11 269.991 332.835 269.991C332.56 269.991 332.335 270.216 332.335 270.491ZM335.668 270.658C336.035 271.024 336.635 271.024 337.002 270.658C337.368 270.291 337.068 269.991 336.335 269.991C335.602 269.991 335.302 270.291 335.668 270.658ZM342.668 270.658C343.035 271.024 343.635 271.024 344.002 270.658C344.368 270.291 344.068 269.991 343.335 269.991C342.602 269.991 342.302 270.291 342.668 270.658ZM346.335 270.491C346.335 270.766 346.56 270.991 346.835 270.991C347.11 270.991 347.335 270.766 347.335 270.491C347.335 270.216 347.11 269.991 346.835 269.991C346.56 269.991 346.335 270.216 346.335 270.491ZM350.335 270.491C350.335 270.766 350.56 270.991 350.835 270.991C351.11 270.991 351.335 270.766 351.335 270.491C351.335 270.216 351.11 269.991 350.835 269.991C350.56 269.991 350.335 270.216 350.335 270.491ZM227.335 271.676C191.95 273.704 122.472 282.448 119.835 285.206C119.142 285.93 120.065 286.056 122.835 285.616C162.048 279.388 197.015 275.53 228.835 273.92C252.75 272.71 262.055 271.049 243.835 271.244C237.785 271.308 230.36 271.503 227.335 271.676ZM348.335 271.991C348.335 272.724 348.635 273.024 349.002 272.658C349.368 272.291 349.368 271.691 349.002 271.324C348.635 270.958 348.335 271.258 348.335 271.991ZM280.781 273.078C280.412 273.676 280.514 274.57 281.008 275.064C281.539 275.595 281.906 275.151 281.906 273.977C281.906 271.704 281.721 271.557 280.781 273.078ZM285.883 273.241C286.631 275.206 284.786 275.695 283.997 273.741C283.634 272.84 283.471 272.823 283.414 273.682C283.296 275.463 285.352 276.374 286.622 275.104C287.439 274.287 287.4 273.659 286.476 272.741C285.466 271.739 285.349 271.838 285.883 273.241ZM288.335 272.491C288.335 272.766 288.56 272.991 288.835 272.991C289.11 272.991 289.335 272.766 289.335 272.491C289.335 272.216 289.11 271.991 288.835 271.991C288.56 271.991 288.335 272.216 288.335 272.491ZM292.883 273.241C293.631 275.206 291.786 275.695 290.997 273.741C290.634 272.84 290.471 272.823 290.414 273.682C290.296 275.463 292.352 276.374 293.622 275.104C294.439 274.287 294.4 273.659 293.476 272.741C292.466 271.739 292.349 271.838 292.883 273.241ZM295.335 272.491C295.335 272.766 295.56 272.991 295.835 272.991C296.11 272.991 296.335 272.766 296.335 272.491C296.335 272.216 296.11 271.991 295.835 271.991C295.56 271.991 295.335 272.216 295.335 272.491ZM299.335 272.491C299.335 272.766 299.56 272.991 299.835 272.991C300.11 272.991 300.335 272.766 300.335 272.491C300.335 272.216 300.11 271.991 299.835 271.991C299.56 271.991 299.335 272.216 299.335 272.491ZM302.335 272.491C302.335 272.766 302.56 272.991 302.835 272.991C303.11 272.991 303.335 272.766 303.335 272.491C303.335 272.216 303.11 271.991 302.835 271.991C302.56 271.991 302.335 272.216 302.335 272.491ZM306.335 272.491C306.335 272.766 306.56 272.991 306.835 272.991C307.11 272.991 307.335 272.766 307.335 272.491C307.335 272.216 307.11 271.991 306.835 271.991C306.56 271.991 306.335 272.216 306.335 272.491ZM327.335 272.491C327.335 272.766 327.56 272.991 327.835 272.991C328.11 272.991 328.335 272.766 328.335 272.491C328.335 272.216 328.11 271.991 327.835 271.991C327.56 271.991 327.335 272.216 327.335 272.491ZM330.335 272.491C330.335 272.766 330.56 272.991 330.835 272.991C331.11 272.991 331.335 272.766 331.335 272.491C331.335 272.216 331.11 271.991 330.835 271.991C330.56 271.991 330.335 272.216 330.335 272.491ZM334.335 272.491C334.335 272.766 334.56 272.991 334.835 272.991C335.11 272.991 335.335 272.766 335.335 272.491C335.335 272.216 335.11 271.991 334.835 271.991C334.56 271.991 334.335 272.216 334.335 272.491ZM341.335 272.491C341.335 272.766 341.56 272.991 341.835 272.991C342.11 272.991 342.335 272.766 342.335 272.491C342.335 272.216 342.11 271.991 341.835 271.991C341.56 271.991 341.335 272.216 341.335 272.491ZM344.335 272.384C344.335 272.6 345.033 273.045 345.887 273.373C346.777 273.714 347.178 273.546 346.828 272.98C346.241 272.029 344.335 271.574 344.335 272.384ZM297.335 273.893C297.335 274.931 299.237 276.434 299.801 275.841C299.984 275.649 299.504 274.911 298.734 274.202C297.965 273.492 297.335 273.353 297.335 273.893ZM304.335 273.491C304.335 273.766 304.56 273.991 304.835 273.991C305.11 273.991 305.335 273.766 305.335 273.491C305.335 273.216 305.11 272.991 304.835 272.991C304.56 272.991 304.335 273.216 304.335 273.491ZM332.335 273.991C332.335 274.724 332.635 275.024 333.002 274.658C333.368 274.291 333.368 273.691 333.002 273.324C332.635 272.958 332.335 273.258 332.335 273.991ZM339.335 273.991C339.335 274.724 339.635 275.024 340.002 274.658C340.368 274.291 340.368 273.691 340.002 273.324C339.635 272.958 339.335 273.258 339.335 273.991ZM288.335 275.491C288.335 275.766 288.56 275.991 288.835 275.991C289.11 275.991 289.335 275.766 289.335 275.491C289.335 275.216 289.11 274.991 288.835 274.991C288.56 274.991 288.335 275.216 288.335 275.491ZM295.335 275.491C295.335 275.766 295.56 275.991 295.835 275.991C296.11 275.991 296.335 275.766 296.335 275.491C296.335 275.216 296.11 274.991 295.835 274.991C295.56 274.991 295.335 275.216 295.335 275.491ZM302.335 275.491C302.335 275.766 302.56 275.991 302.835 275.991C303.11 275.991 303.335 275.766 303.335 275.491C303.335 275.216 303.11 274.991 302.835 274.991C302.56 274.991 302.335 275.216 302.335 275.491ZM306.335 275.491C306.335 275.766 306.56 275.991 306.835 275.991C307.11 275.991 307.335 275.766 307.335 275.491C307.335 275.216 307.11 274.991 306.835 274.991C306.56 274.991 306.335 275.216 306.335 275.491ZM330.335 275.491C330.335 275.766 330.56 275.991 330.835 275.991C331.11 275.991 331.335 275.766 331.335 275.491C331.335 275.216 331.11 274.991 330.835 274.991C330.56 274.991 330.335 275.216 330.335 275.491ZM334.335 275.491C334.335 275.766 334.56 275.991 334.835 275.991C335.11 275.991 335.335 275.766 335.335 275.491C335.335 275.216 335.11 274.991 334.835 274.991C334.56 274.991 334.335 275.216 334.335 275.491ZM337.335 275.491C337.335 275.766 337.56 275.991 337.835 275.991C338.11 275.991 338.335 275.766 338.335 275.491C338.335 275.216 338.11 274.991 337.835 274.991C337.56 274.991 337.335 275.216 337.335 275.491ZM341.335 275.491C341.335 275.766 341.56 275.991 341.835 275.991C342.11 275.991 342.335 275.766 342.335 275.491C342.335 275.216 342.11 274.991 341.835 274.991C341.56 274.991 341.335 275.216 341.335 275.491ZM344.335 275.491C344.335 275.766 344.56 275.991 344.835 275.991C345.11 275.991 345.335 275.766 345.335 275.491C345.335 275.216 345.11 274.991 344.835 274.991C344.56 274.991 344.335 275.216 344.335 275.491ZM348.335 275.491C348.335 275.766 348.56 275.991 348.835 275.991C349.11 275.991 349.335 275.766 349.335 275.491C349.335 275.216 349.11 274.991 348.835 274.991C348.56 274.991 348.335 275.216 348.335 275.491ZM283.335 277.491C283.335 277.766 283.56 277.991 283.835 277.991C284.11 277.991 284.335 277.766 284.335 277.491C284.335 277.216 284.11 276.991 283.835 276.991C283.56 276.991 283.335 277.216 283.335 277.491ZM287.546 278.39C288.255 279.16 288.993 279.64 289.185 279.457C289.778 278.893 288.275 276.991 287.237 276.991C286.697 276.991 286.836 277.621 287.546 278.39ZM290.335 277.491C290.335 277.766 290.56 277.991 290.835 277.991C291.11 277.991 291.335 277.766 291.335 277.491C291.335 277.216 291.11 276.991 290.835 276.991C290.56 276.991 290.335 277.216 290.335 277.491ZM294.546 278.39C295.255 279.16 295.993 279.64 296.185 279.457C296.778 278.893 295.275 276.991 294.237 276.991C293.697 276.991 293.836 277.621 294.546 278.39ZM297.764 278.869C297.764 280.119 298.26 280.573 299.223 280.204C300.32 279.783 300.5 280.121 299.949 281.567C299.358 283.119 299.462 283.247 300.487 282.23C301.513 281.211 301.374 280.585 299.76 278.972C297.837 277.048 297.764 277.045 297.764 278.869ZM301.546 278.39C302.255 279.16 302.993 279.64 303.185 279.457C303.778 278.893 302.275 276.991 301.237 276.991C300.697 276.991 300.836 277.621 301.546 278.39ZM304.335 277.491C304.335 277.766 304.56 277.991 304.835 277.991C305.11 277.991 305.335 277.766 305.335 277.491C305.335 277.216 305.11 276.991 304.835 276.991C304.56 276.991 304.335 277.216 304.335 277.491ZM332.335 277.491C332.335 277.766 332.56 277.991 332.835 277.991C333.11 277.991 333.335 277.766 333.335 277.491C333.335 277.216 333.11 276.991 332.835 276.991C332.56 276.991 332.335 277.216 332.335 277.491ZM334.794 278.058C333.768 279.718 334.689 279.948 336.124 278.39C336.834 277.621 336.973 276.991 336.433 276.991C335.894 276.991 335.156 277.471 334.794 278.058ZM339.335 277.491C339.335 277.766 339.56 277.991 339.835 277.991C340.11 277.991 340.335 277.766 340.335 277.491C340.335 277.216 340.11 276.991 339.835 276.991C339.56 276.991 339.335 277.216 339.335 277.491ZM346.335 277.491C346.335 277.766 346.56 277.991 346.835 277.991C347.11 277.991 347.335 277.766 347.335 277.491C347.335 277.216 347.11 276.991 346.835 276.991C346.56 276.991 346.335 277.216 346.335 277.491ZM341.335 278.991C341.335 279.724 341.635 280.024 342.002 279.658C342.368 279.291 342.368 278.691 342.002 278.324C341.635 277.958 341.335 278.258 341.335 278.991ZM343.74 280.146C343.297 280.861 343.465 281.029 344.18 280.586C344.815 280.194 345.335 279.675 345.335 279.432C345.335 278.598 344.452 278.993 343.74 280.146ZM290.335 280.893C290.335 281.931 292.237 283.434 292.801 282.841C292.984 282.649 292.504 281.911 291.734 281.202C290.965 280.492 290.335 280.353 290.335 280.893ZM293.335 280.491C293.335 280.766 293.56 280.991 293.835 280.991C294.11 280.991 294.335 280.766 294.335 280.491C294.335 280.216 294.11 279.991 293.835 279.991C293.56 279.991 293.335 280.216 293.335 280.491ZM336.335 280.491C336.335 280.766 336.56 280.991 336.835 280.991C337.11 280.991 337.335 280.766 337.335 280.491C337.335 280.216 337.11 279.991 336.835 279.991C336.56 279.991 336.335 280.216 336.335 280.491ZM339.335 280.491C339.335 280.766 339.56 280.991 339.835 280.991C340.11 280.991 340.335 280.766 340.335 280.491C340.335 280.216 340.11 279.991 339.835 279.991C339.56 279.991 339.335 280.216 339.335 280.491ZM288.335 282.491C288.335 282.766 288.56 282.991 288.835 282.991C289.11 282.991 289.335 282.766 289.335 282.491C289.335 282.216 289.11 281.991 288.835 281.991C288.56 281.991 288.335 282.216 288.335 282.491ZM295.335 282.491C295.335 282.766 295.56 282.991 295.835 282.991C296.11 282.991 296.335 282.766 296.335 282.491C296.335 282.216 296.11 281.991 295.835 281.991C295.56 281.991 295.335 282.216 295.335 282.491ZM302.335 282.491C302.335 282.766 302.56 282.991 302.835 282.991C303.11 282.991 303.335 282.766 303.335 282.491C303.335 282.216 303.11 281.991 302.835 281.991C302.56 281.991 302.335 282.216 302.335 282.491ZM337.668 282.658C338.035 283.024 338.635 283.024 339.002 282.658C339.368 282.291 339.068 281.991 338.335 281.991C337.602 281.991 337.302 282.291 337.668 282.658ZM341.335 282.491C341.335 282.766 341.56 282.991 341.835 282.991C342.11 282.991 342.335 282.766 342.335 282.491C342.335 282.216 342.11 281.991 341.835 281.991C341.56 281.991 341.335 282.216 341.335 282.491ZM72.8561 288.216C70.6681 289.319 66.2471 290.461 63.0331 290.752C59.2861 291.092 57.6631 291.588 58.5111 292.135C61.2671 293.91 76.0341 289.905 77.9071 286.875C78.7011 285.59 77.3521 285.948 72.8561 288.216ZM186.835 293.705C144.85 298.603 136.863 299.869 138.402 301.385C138.697 301.676 234.052 291.03 240.085 290.032C240.222 290.01 240.335 289.541 240.335 288.991C240.335 287.525 238.203 287.713 186.835 293.705ZM279.335 324.491C279.335 324.766 279.56 324.991 279.835 324.991C280.11 324.991 280.335 324.766 280.335 324.491C280.335 324.216 280.11 323.991 279.835 323.991C279.56 323.991 279.335 324.216 279.335 324.491ZM288.631 324.735C292.918 324.923 299.668 324.922 303.631 324.733C307.593 324.543 304.085 324.39 295.835 324.391C287.585 324.392 284.343 324.547 288.631 324.735ZM254.132 325.736C258.696 325.921 265.896 325.92 270.132 325.733C274.369 325.546 270.635 325.395 261.835 325.396C253.035 325.397 249.569 325.55 254.132 325.736ZM231.585 326.726C234.198 326.932 238.472 326.932 241.085 326.726C243.698 326.52 241.56 326.351 236.335 326.351C231.11 326.351 228.972 326.52 231.585 326.726ZM215.585 327.719C217.648 327.935 221.023 327.935 223.085 327.719C225.148 327.504 223.46 327.327 219.335 327.327C215.21 327.327 213.523 327.504 215.585 327.719ZM201.085 328.714C202.872 328.936 205.798 328.936 207.585 328.714C209.372 328.493 207.91 328.311 204.335 328.311C200.76 328.311 199.298 328.493 201.085 328.714ZM188.103 329.716C189.9 329.938 192.6 329.934 194.103 329.706C195.606 329.477 194.135 329.295 190.835 329.301C187.535 329.306 186.306 329.493 188.103 329.716ZM176.585 330.707C178.097 330.936 180.573 330.936 182.085 330.707C183.597 330.478 182.36 330.291 179.335 330.291C176.31 330.291 175.073 330.478 176.585 330.707ZM166.599 331.709C168.119 331.938 170.369 331.932 171.599 331.695C172.829 331.458 171.585 331.27 168.835 331.277C166.085 331.285 165.079 331.479 166.599 331.709ZM156.599 332.709C158.119 332.938 160.369 332.932 161.599 332.695C162.829 332.458 161.585 332.27 158.835 332.277C156.085 332.285 155.079 332.479 156.599 332.709ZM147.085 333.697C148.323 333.935 150.347 333.935 151.585 333.697C152.823 333.458 151.81 333.263 149.335 333.263C146.86 333.263 145.847 333.458 147.085 333.697ZM132.335 334.991C128.271 335.623 128.174 335.697 131.335 335.753C133.26 335.788 137.085 335.465 139.835 335.037C144.564 334.3 144.619 334.259 140.835 334.275C138.635 334.284 134.81 334.606 132.335 334.991ZM113.835 337.474C109.985 338.16 107.96 338.748 109.335 338.781C110.71 338.814 115.435 338.253 119.835 337.536C124.235 336.818 126.26 336.23 124.335 336.229C122.41 336.229 117.685 336.789 113.835 337.474Z" fill="black"/>
</svg>
