<svg width="24" height="24" viewBox="0 0 24 24" fill="none" xmlns="http://www.w3.org/2000/svg">
 
<path d="M2.049 7.002H21.95" stroke="black" stroke-width="2" stroke-linejoin="round"/>
<path d="M13.504 2.001L16.362 7.002" stroke="black" stroke-width="2" stroke-linecap="round" stroke-linejoin="round"/>
<path d="M7.207 2.11L10.002 7.002" stroke="black" stroke-width="2" stroke-linecap="round" stroke-linejoin="round"/>
<path d="M2 12.001V15.45C2 18.299 2.698 19.456 3.606 20.395C4.546 21.303 5.704 22.002 8.552 22.002H15.448C18.296 22.002 19.454 21.303 20.394 20.395C21.302 19.456 22 18.299 22 15.45V8.552C22 5.704 21.302 4.546 20.394 3.607C19.454 2.699 18.296 2 15.448 2H8.552C5.704 2 4.546 2.699 3.606 3.607C2.698 4.546 2 5.704 2 8.552V12.001Z" stroke="black" stroke-width="2" stroke-linecap="round" stroke-linejoin="round"/>
<path id="btn" fill-rule="evenodd" clip-rule="evenodd" d="M9.76301 17.664C9.62488 17.5842 9.51019 17.4695 9.43049 17.3314C9.35079 17.1932 9.30889 17.0365 9.30901 16.877V11.63C9.30882 11.4703 9.35071 11.3134 9.43046 11.175C9.51021 11.0366 9.62501 10.9217 9.76329 10.8418C9.90158 10.7619 10.0585 10.7199 10.2182 10.7199C10.3779 10.72 10.5348 10.7621 10.673 10.842L15.218 13.466C15.3563 13.5457 15.4712 13.6605 15.5511 13.7988C15.6309 13.937 15.673 14.0938 15.673 14.2535C15.673 14.4132 15.6309 14.57 15.5511 14.7082C15.4712 14.8465 15.3563 14.9613 15.218 15.041L10.673 17.665C10.5347 17.7449 10.3777 17.7869 10.218 17.7869C10.0583 17.7869 9.90134 17.7449 9.76301 17.665V17.664Z" fill="black"/>
</svg>
