<svg width="24" height="24" viewBox="0 0 24 24" fill="none" xmlns="http://www.w3.org/2000/svg">
   <style>
        @media (prefers-color-scheme: dark) {
            path { 
                fill: white; 
            }
        }
    </style>
<path d="M18.001 1H6.001C4.6754 1.00159 3.40456 1.52888 2.46722 2.46622C1.52988 3.40356 1.00259 4.6744 1.001 6V15.005C1.00259 16.3306 1.52988 17.6014 2.46722 18.5388C3.40456 19.4761 4.6754 20.0034 6.001 20.005H8.515L11.304 22.717C11.4907 22.8984 11.7407 22.9999 12.001 22.9999C12.2613 22.9999 12.5113 22.8984 12.698 22.717L15.485 20.005H18.001C19.3266 20.0034 20.5974 19.4761 21.5348 18.5388C22.4721 17.6014 22.9994 16.3306 23.001 15.005V6C22.9994 4.6744 22.4721 3.40356 21.5348 2.46622C20.5974 1.52888 19.3266 1.00159 18.001 1ZM21.001 15.005C21.0002 15.8004 20.6839 16.563 20.1214 17.1254C19.559 17.6879 18.7964 18.0042 18.001 18.005H15.065C14.9125 18.005 14.7621 18.0399 14.6252 18.107C14.4882 18.174 14.3685 18.2715 14.275 18.392L12.001 20.604L9.725 18.392C9.63154 18.2715 9.51176 18.174 9.37484 18.107C9.23792 18.0399 9.08747 18.005 8.935 18.005H6C5.20459 18.0042 4.44199 17.6879 3.87956 17.1254C3.31712 16.563 3.00079 15.8004 3 15.005V6C3.00079 5.20459 3.31712 4.44199 3.87956 3.87956C4.44199 3.31712 5.20459 3.00079 6 3H18C18.7954 3.00079 19.558 3.31712 20.1204 3.87956C20.6829 4.44199 20.9992 5.20459 21 6L21.001 15.005ZM12.001 13.345C11.7578 13.3448 11.5201 13.4167 11.3178 13.5517C11.1156 13.6867 10.9579 13.8786 10.8647 14.1032C10.7716 14.3278 10.7472 14.575 10.7946 14.8135C10.842 15.052 10.959 15.2711 11.131 15.443C11.3029 15.615 11.522 15.732 11.7605 15.7794C11.999 15.8268 12.2462 15.8024 12.4708 15.7093C12.6954 15.6161 12.8873 15.4584 13.0223 15.2562C13.1573 15.0539 13.2292 14.8162 13.229 14.573C13.2287 14.2471 13.0992 13.9347 12.8687 13.7043C12.6383 13.4738 12.3259 13.3443 12 13.344L12.001 13.345ZM12.001 5.228C11.8267 5.22666 11.6539 5.26111 11.4934 5.32922C11.3329 5.39734 11.1881 5.49767 11.068 5.624C10.9628 5.73535 10.8818 5.86731 10.8302 6.01155C10.7785 6.15579 10.7574 6.30917 10.768 6.462L11.115 11.323C11.1422 11.5386 11.2471 11.7368 11.41 11.8805C11.573 12.0242 11.7827 12.1035 12 12.1035C12.2173 12.1035 12.427 12.0242 12.59 11.8805C12.7529 11.7368 12.8578 11.5386 12.885 11.323L13.233 6.463C13.2438 6.31016 13.2227 6.15675 13.171 6.01249C13.1194 5.86823 13.0383 5.73628 12.933 5.625C12.813 5.49839 12.6683 5.39781 12.5078 5.32952C12.3473 5.26122 12.1744 5.22667 12 5.228H12.001Z" fill="#262626"/>
</svg>
