<svg width="24" height="24" viewBox="0 0 24 24" fill="none" xmlns="http://www.w3.org/2000/svg">
   <style>
        @media (prefers-color-scheme: dark) {
            path { 
                fill: white; 
            }
        }
    </style>
<path d="M12.0002 4.5C12.2654 4.5 12.5198 4.39464 12.7073 4.20711C12.8948 4.01957 13.0002 3.76522 13.0002 3.5V2C13.0002 1.73478 12.8948 1.48043 12.7073 1.29289C12.5198 1.10536 12.2654 1 12.0002 1C11.735 1 11.4806 1.10536 11.2931 1.29289C11.1055 1.48043 11.0002 1.73478 11.0002 2V3.5C11.0002 3.76521 11.1056 4.01956 11.2931 4.20709C11.4806 4.39463 11.735 4.49999 12.0002 4.5ZM5.28241 6.69678C5.37526 6.78963 5.48549 6.86328 5.6068 6.91353C5.72811 6.96378 5.85814 6.98964 5.98944 6.98964C6.12075 6.98964 6.25077 6.96378 6.37209 6.91353C6.4934 6.86328 6.60363 6.78962 6.69648 6.69677C6.78932 6.60393 6.86298 6.4937 6.91322 6.37239C6.96347 6.25107 6.98934 6.12105 6.98934 5.98974C6.98933 5.85843 6.96347 5.72841 6.91322 5.6071C6.86297 5.48579 6.78932 5.37556 6.69647 5.28271L5.63593 4.22171C5.4482 4.03523 5.19421 3.93077 4.92961 3.93121C4.665 3.93166 4.41136 4.03696 4.22425 4.22406C4.03715 4.41117 3.93183 4.6648 3.93138 4.92941C3.93094 5.19401 4.03539 5.44801 4.22186 5.63574L5.28241 6.69678ZM4.50018 12C4.50018 11.7348 4.39482 11.4804 4.20729 11.2929C4.01975 11.1054 3.7654 11 3.50018 11H2.00018C1.73496 11 1.48061 11.1054 1.29307 11.2929C1.10554 11.4804 1.00018 11.7348 1.00018 12C1.00018 12.2652 1.10554 12.5196 1.29307 12.7071C1.48061 12.8946 1.73496 13 2.00018 13H3.50018C3.7654 13 4.01975 12.8946 4.20729 12.7071C4.39482 12.5196 4.50018 12.2652 4.50018 12ZM5.28241 17.3032L4.22186 18.3642C4.12901 18.4571 4.05536 18.5673 4.00511 18.6886C3.95486 18.8099 3.929 18.9399 3.929 19.0713C3.929 19.2026 3.95486 19.3326 4.00511 19.4539C4.05536 19.5752 4.12902 19.6854 4.22187 19.7783C4.31471 19.8711 4.42494 19.9448 4.54626 19.995C4.66757 20.0453 4.79759 20.0711 4.9289 20.0711C5.06021 20.0711 5.19023 20.0453 5.31154 19.995C5.43285 19.9448 5.54308 19.8711 5.63593 19.7783L6.69647 18.7173C6.88399 18.5298 6.98933 18.2754 6.98934 18.0102C6.98934 17.7451 6.88399 17.4907 6.69648 17.3032C6.50896 17.1157 6.25463 17.0104 5.98944 17.0103C5.72426 17.0103 5.46993 17.1157 5.28241 17.3032ZM12.0002 19.5C11.735 19.5 11.4806 19.6054 11.2931 19.7929C11.1056 19.9804 11.0002 20.2348 11.0002 20.5V22C11.0002 22.2652 11.1055 22.5196 11.2931 22.7071C11.4806 22.8946 11.735 23 12.0002 23C12.2654 23 12.5198 22.8946 12.7073 22.7071C12.8948 22.5196 13.0002 22.2652 13.0002 22V20.5C13.0002 20.2348 12.8948 19.9804 12.7073 19.7929C12.5198 19.6054 12.2654 19.5 12.0002 19.5ZM18.7175 17.3032C18.53 17.1157 18.2756 17.0104 18.0104 17.0104C17.7452 17.0104 17.4909 17.1157 17.3034 17.3032C17.1159 17.4907 17.0105 17.7451 17.0105 18.0103C17.0105 18.2754 17.1159 18.5298 17.3034 18.7173L18.364 19.7783C18.5518 19.9642 18.8056 20.0683 19.0699 20.0676C19.3342 20.0669 19.5875 19.9616 19.7744 19.7747C19.9613 19.5878 20.0666 19.3346 20.0673 19.0702C20.068 18.8059 19.964 18.5521 19.778 18.3643L18.7175 17.3032ZM22.0002 11H20.5002C20.235 11 19.9806 11.1054 19.7931 11.2929C19.6055 11.4804 19.5002 11.7348 19.5002 12C19.5002 12.2652 19.6055 12.5196 19.7931 12.7071C19.9806 12.8946 20.235 13 20.5002 13H22.0002C22.2654 13 22.5198 12.8946 22.7073 12.7071C22.8948 12.5196 23.0002 12.2652 23.0002 12C23.0002 11.7348 22.8948 11.4804 22.7073 11.2929C22.5198 11.1054 22.2654 11 22.0002 11ZM18.0104 6.98975C18.1418 6.98994 18.2719 6.96415 18.3932 6.91387C18.5145 6.86358 18.6247 6.78979 18.7174 6.69675L19.778 5.63575C19.9636 5.44784 20.0673 5.19414 20.0664 4.93005C20.0656 4.66595 19.9603 4.41291 19.7736 4.22616C19.5869 4.03941 19.3338 3.93412 19.0697 3.93328C18.8056 3.93244 18.5519 4.03612 18.364 4.22168L17.3035 5.28268C17.1637 5.42253 17.0684 5.6007 17.0299 5.79465C16.9913 5.9886 17.0111 6.18963 17.0868 6.37233C17.1625 6.55503 17.2906 6.7112 17.455 6.82108C17.6194 6.93097 17.8127 6.98971 18.0104 6.98975ZM12.0002 6C10.8135 6 9.65345 6.35189 8.66676 7.01118C7.68006 7.67047 6.91103 8.60754 6.4569 9.7039C6.00278 10.8003 5.88396 12.0067 6.11547 13.1705C6.34698 14.3344 6.91842 15.4035 7.75754 16.2426C8.59665 17.0818 9.66575 17.6532 10.8296 17.8847C11.9935 18.1162 13.1999 17.9974 14.2963 17.5433C15.3926 17.0892 16.3297 16.3201 16.989 15.3334C17.6483 14.3467 18.0002 13.1867 18.0002 12C17.9984 10.4092 17.3657 8.88412 16.2409 7.75928C15.1161 6.63444 13.5909 6.00174 12.0002 6ZM12.0002 16C11.2091 16 10.4357 15.7654 9.7779 15.3259C9.1201 14.8864 8.60741 14.2616 8.30466 13.5307C8.00191 12.7998 7.9227 11.9956 8.07704 11.2196C8.23138 10.4437 8.61234 9.73098 9.17175 9.17157C9.73116 8.61216 10.4439 8.2312 11.2198 8.07686C11.9957 7.92252 12.8 8.00173 13.5309 8.30448C14.2618 8.60723 14.8865 9.11992 15.3261 9.77772C15.7656 10.4355 16.0002 11.2089 16.0002 12C15.999 13.0605 15.5772 14.0772 14.8273 14.8271C14.0774 15.577 13.0607 15.9988 12.0002 16Z" fill="black"/>
</svg>
