<svg width="16" height="16" viewBox="0 0 16 16" fill="none" xmlns="http://www.w3.org/2000/svg">
<path fill-rule="evenodd" clip-rule="evenodd" d="M15.3333 13.8333H5.99999C5.73332 13.8333 5.49999 13.6 5.49999 13.3333V12.8333C5.49999 11 6.99999 9.5 8.83332 9.5H12.5C14.3333 9.5 15.8333 11 15.8333 12.8333V13.3333C15.8333 13.6 15.6 13.8333 15.3333 13.8333ZM10.6667 8.5C8.93332 8.5 7.49999 7.06666 7.49999 5.33333C7.49999 3.6 8.93332 2.16666 10.6667 2.16666C12.4 2.16666 13.8333 3.6 13.8333 5.33333C13.8333 7.06666 12.4 8.5 10.6667 8.5ZM5.33332 8.83333H3.83332V10.3333C3.83332 10.6 3.59999 10.8333 3.33332 10.8333H2.66666C2.39999 10.8333 2.16666 10.6 2.16666 10.3333V8.83333H0.666657C0.39999 8.83333 0.166656 8.6 0.166656 8.33333V7.66666C0.166656 7.4 0.39999 7.16666 0.666657 7.16666H2.16666V5.66666C2.16666 5.4 2.39999 5.16666 2.66666 5.16666H3.33332C3.59999 5.16666 3.83332 5.4 3.83332 5.66666V7.16666H5.33332C5.59999 7.16666 5.83332 7.4 5.83332 7.66666V8.33333C5.83332 8.6 5.59999 8.83333 5.33332 8.83333Z" fill="black"/>
</svg>
