<svg width="16" height="16" viewBox="0 0 16 16" fill="none" xmlns="http://www.w3.org/2000/svg">
<path d="M12.6707 5.50133C12.6707 5.96285 12.5338 6.414 12.2774 6.79773C12.021 7.18146 11.6565 7.48053 11.2301 7.65712C10.8037 7.8337 10.3345 7.87987 9.88188 7.78978C9.42924 7.6997 9.01348 7.4774 8.68718 7.15101C8.36088 6.82462 8.13871 6.4088 8.04875 5.95613C7.9588 5.50347 8.0051 5.03429 8.1818 4.60794C8.35851 4.18159 8.65768 3.81722 9.04149 3.56091C9.42529 3.3046 9.87648 3.16787 10.338 3.168C10.9568 3.168 11.5503 3.41383 11.9879 3.85142C12.4255 4.289 12.6707 4.88249 12.6707 5.50133Z" stroke="black" stroke-width="1.33333" stroke-miterlimit="10"/>
<path d="M14.6667 13V12.702C14.6665 11.986 14.382 11.2994 13.8756 10.7932C13.3693 10.287 12.6826 10.0027 11.9667 10.0027H8.69601C7.98015 10.0028 7.29367 10.2873 6.78749 10.7935C6.2813 11.2997 5.99685 11.9861 5.99667 12.702V13" stroke="black" stroke-width="1.33333" stroke-linecap="round" stroke-linejoin="round"/>
<path d="M3.334 5.332V9.33533" stroke="black" stroke-width="1.33333" stroke-miterlimit="10" stroke-linecap="round"/>
<path d="M5.33599 7.33334H1.33533" stroke="black" stroke-width="1.33333" stroke-miterlimit="10" stroke-linecap="round"/>
</svg>
